<svg xmlns="http://www.w3.org/2000/svg" width="43" height="16" viewBox="0 0 43 16">
    <g fill="#9A9BA7" fill-rule="evenodd">
        <rect width="43" height="16" fill-opacity=".2" rx="1"/>
        <path fill-opacity=".5" fill-rule="nonzero" d="M10.43 11V9.759H7.234V4.574H5.85V11h4.581zm3.145.11c.714 0 1.539-.297 1.972-.747l-.867-.884c-.263.246-.73.425-1.113.425-.57 0-.995-.357-1.148-.876h3.485c0-1.828-.892-2.975-2.405-2.975-1.411 0-2.482 1.054-2.482 2.516 0 1.487 1.122 2.541 2.558 2.541zm1.02-3.068h-2.159c.179-.484.604-.782 1.122-.782.553 0 .901.306 1.037.782zM19.704 11l2.065-4.837h-1.42l-1.266 3.264-1.3-3.263h-1.437l2.1 4.836h1.258zm5.083.11c.714 0 1.538-.297 1.972-.747l-.867-.884c-.264.246-.731.425-1.114.425-.57 0-.994-.357-1.147-.876h3.485c0-1.828-.893-2.975-2.406-2.975-1.41 0-2.482 1.054-2.482 2.516 0 1.487 1.122 2.541 2.559 2.541zm1.02-3.068h-2.16c.18-.484.604-.782 1.123-.782.552 0 .9.306 1.037.782zM29.402 11V4.463h-1.368V11h1.368zm7.888 0V9.776h-2.672l1.152-.896c1.104-.8 1.472-1.448 1.472-2.296 0-1.184-.976-2.016-2.32-2.016-1.024 0-1.824.44-2.448 1.232l.864.84c.456-.528.928-.84 1.544-.84.52 0 .96.312.96.84 0 .44-.24.856-.992 1.456l-2.328 1.8V11h4.768z"/>
    </g>
</svg>
