<?xml version="1.0" encoding="utf-8"?>
<!-- Generator: Adobe Illustrator 26.5.2, SVG Export Plug-In . SVG Version: 6.00 Build 0)  -->
<svg version="1.1" id="Layer_1" xmlns="http://www.w3.org/2000/svg" xmlns:xlink="http://www.w3.org/1999/xlink" x="0px" y="0px"
	 viewBox="0 0 1000 500" style="enable-background:new 0 0 1000 500;" xml:space="preserve">
<style type="text/css">
	.st0{fill:#8EACC9;}
	.st1{fill:#97C93C;}
	.st2{fill:#F5881F;}
	.st3{fill:#EF5023;}
	.st4{fill:#FDD500;}
	.st5{fill:#FAB073;}
	.st6{fill:#CADD6D;}
	.st7{fill:#F7DC6A;}
	.st8{fill:#F48A73;}
	.st9{fill:#AE2424;}
	.st10{fill:#B3D4EF;}
	.st11{fill:#FFFFFF;fill-opacity:0.5;}
	.st12{fill:none;stroke:#0086FF;stroke-width:2.9198;stroke-miterlimit:10;}
	.st13{fill:none;stroke:#FF0062;stroke-width:3.0155;stroke-miterlimit:10;}
	.st14{fill:#C9A200;}
	.st15{fill:#72991D;}
	.st16{fill:#A34A00;}
	.st17{fill:#871900;}
	.st18{fill:#366287;}
	.st19{fill:#A00769;}
</style>
<path class="st0" d="M95.5,206.1C35.4,288.6,0,390.2,0,500h100c0-87.9,28.3-169.1,76.4-235.1L95.5,206.1z"/>
<path class="st1" d="M376.4,119.5l-30.9-95.1c-101.4,32.9-188.6,97.4-250,181.8l80.9,58.8C225.5,197.4,295.3,145.8,376.4,119.5z"/>
<path class="st2" d="M823.6,264.9l80.9-58.8c-61.4-84.4-148.6-148.8-250-181.8l-30.9,95.1C704.8,145.8,774.5,197.4,823.6,264.9z"/>
<path class="st3" d="M900,500h100c0-109.8-35.4-211.4-95.5-293.9l-80.9,58.8C871.7,330.9,900,412.1,900,500z"/>
<path class="st4" d="M499.6,101c43.2,0,84.7,6.8,123.6,19.5l30.9-95.1C605.5,9.5,553.5,1,499.6,1S393.7,9.5,345.1,25.3l30.9,95.1
	C414.9,107.8,456.5,101,499.6,101z"/>
<path class="st5" d="M623.6,119.5L500,500l323.6-235.1C774.5,197.4,704.8,145.8,623.6,119.5z"/>
<path class="st6" d="M176.4,264.9L500,500L376.4,119.5C295.3,145.8,225.5,197.4,176.4,264.9z"/>
<path class="st7" d="M500,100c-43.1,0-84.7,6.8-123.6,19.5L500,500l123.6-380.5C584.7,106.8,543.2,100,500,100z"/>
<path class="st8" d="M823.6,264.9L500,500l0,0h400C900,412.1,871.7,330.9,823.6,264.9z"/>
<path class="st9" d="M500,500L500,500L500,500z"/>
<path class="st9" d="M500,500L500,500L500,500z"/>
<path class="st10" d="M176.4,264.9c-48,66-76.4,147.3-76.4,235.1h400l0,0L176.4,264.9z"/>
<path class="st9" d="M500,500L500,500L500,500z"/>
<path class="st11" d="M375,500c0-69,56-125,125-125s125,56,125,125"/>
<g>
	<g>
		<path class="st12" d="M99.2,499.6C99.2,278.2,278.6,98.8,500,98.8s400.8,179.4,400.8,400.8"/>
	</g>
</g>
<g>
	<g>
		<path class="st13" d="M48.1,499.2C48.1,249.6,250.4,47.3,500,47.3s451.9,202.3,451.9,451.9"/>
	</g>
</g>
<g>
	<path class="st14" d="M473.2,234.1c-4.7-2.3-8.2-5.2-10.5-8.6c-0.9,1.8-2.4,3.7-4.5,5.7c-2.2,2-4.2,3.5-6.1,4.5l-4.3-4.3
		c3.3-1.2,6.1-3.2,8.3-5.9c2.3-2.7,3.4-5.5,3.4-8.5v-1.9h-9.7V210H475v5.1h-9.5v1.7c0,2.8,1.1,5.3,3.2,7.6s4.9,3.9,8.3,5.1
		L473.2,234.1z M473.9,254.8c-4.9,0-8.7-0.9-11.4-2.7c-2.7-1.8-4.1-4.2-4.1-7.1c0-2.9,1.4-5.2,4.1-7.1s6.5-2.7,11.4-2.7
		s8.7,0.9,11.4,2.8c2.8,1.8,4.1,4.2,4.1,7.1c0,2.9-1.4,5.3-4.1,7.1C482.6,253.9,478.8,254.8,473.9,254.8z M473.9,240.2
		c-3.1,0-5.4,0.4-7,1.3s-2.3,2-2.3,3.4s0.8,2.6,2.3,3.4c1.6,0.9,3.9,1.3,6.9,1.3c3.1,0,5.4-0.4,7-1.3c1.6-0.9,2.4-2,2.4-3.4
		s-0.8-2.5-2.3-3.4C479.4,240.7,477,240.2,473.9,240.2z M482.7,234.8v-11.4h-8.9v-4.9h8.9v-10.6h6v27h-6V234.8z"/>
	<path class="st14" d="M523.4,233.3c-4.9-2.3-8.5-5.3-10.7-8.9c-0.8,1.7-2.4,3.6-4.6,5.8c-2.2,2.1-4.2,3.7-5.9,4.6l-4.5-4.4
		c3.5-1.5,6.3-3.7,8.5-6.5s3.3-5.7,3.3-8.6v-5.9h6.1v5.7c0,3,1.1,5.7,3.4,8.3c2.2,2.5,5,4.2,8.4,5.2L523.4,233.3z M521.5,254.8
		c-5,0-8.9-0.9-11.6-2.6c-2.7-1.7-4.1-4-4.1-6.8s1.4-5.1,4.2-6.8c2.8-1.7,6.6-2.5,11.5-2.5s8.8,0.8,11.6,2.5s4.1,3.9,4.1,6.8
		c0,2.8-1.4,5.1-4.1,6.8C530.3,253.9,526.5,254.8,521.5,254.8z M521.5,241.2c-6.2,0-9.4,1.4-9.4,4.2c0,2.9,3.1,4.3,9.4,4.3
		c6.3,0,9.4-1.4,9.4-4.3C530.9,242.6,527.7,241.2,521.5,241.2z M536.4,224.6v10.8h-6.1v-27.5h6.1v11.5h7.2v5.2H536.4z"/>
</g>
<g>
	<path class="st15" d="M283.6,302.5c-4.6-3.3-8.2-7.1-10.6-11.3c-3.1,5.5-6.7,9.6-10.6,12.2l-4.5-3.9c3.1-1.5,5.8-4,8.3-7.6
		s3.7-7.1,3.7-10.6v-5.2h-10.2V271H286v5.2h-10v5c0,3.4,1.2,6.7,3.6,9.9c2.4,3.3,5.1,5.6,8.1,6.9L283.6,302.5z M293.2,314.1v-26
		h-9.7v-5.2h9.7V267h6v47.1H293.2z"/>
	<path class="st15" d="M328.8,302.7c-3.6-2.8-6.3-6-8.2-9.5c-2.2,4.5-4.8,8-7.9,10.6l-4.7-3.7c2.9-1.9,5.2-4.5,6.9-7.8
		c1.8-3.3,2.6-6.7,2.6-10.3v-3h-7.9v-5.2h7.9v-6h6v6h8v5.2h-7.9v3.3c0,3.3,0.8,6.4,2.5,9.4c1.7,2.9,4,5.2,6.9,6.8L328.8,302.7z
		 M334.6,312.7V289H328v-5h6.6v-16h6v44.8L334.6,312.7L334.6,312.7z M343.8,314.1V267h6.1v47.1H343.8z"/>
	<path class="st15" d="M377.6,296.1v-3.4h-18.8v-5.2h43.7v5.2h-18.8v3.4c4.2,0.3,7.4,1.3,9.6,2.8c2.2,1.6,3.3,3.6,3.3,6.1
		c0,2.9-1.4,5.1-4.1,6.7c-2.8,1.6-6.7,2.4-11.9,2.4c-5.1,0-9.1-0.8-11.9-2.4s-4.1-3.8-4.1-6.7c0-2.6,1.1-4.6,3.3-6.2
		C370.3,297.3,373.5,296.4,377.6,296.1z M397.8,285c-7.6-1.3-13.2-3.8-17-7.6c-1.4,1.6-3.7,3.2-7,4.6c-3.3,1.5-6.5,2.4-9.8,2.9
		l-3.4-4.5c3.9-0.3,7.4-1.1,10.5-2.5s5.1-2.9,6-4.7H364V268h33.7v5.2h-13.1c1,1.8,3.1,3.4,6.2,4.8s6.4,2.2,10,2.4L397.8,285z
		 M380.7,301c-6.5,0-9.7,1.3-9.7,4c0,1.3,0.8,2.3,2.5,3c1.6,0.7,4.1,1.1,7.3,1.1c3.2,0,5.6-0.4,7.3-1.1c1.6-0.7,2.5-1.7,2.5-3
		C390.5,302.4,387.2,301,380.7,301z"/>
</g>
<g>
	<path class="st16" d="M629.5,305.8c-9.3,0.5-20,0.8-32.1,0.8l-0.7-5.2c2.8,0,6.3,0,10.5-0.1V286h6.2v15.2
		c5.9-0.1,11.2-0.3,15.7-0.5L629.5,305.8z M625.5,271.7c0,8.1-0.3,16.4-1,24.9l-5.9-0.3c0.4-3,0.7-9.5,1-19.4h-18.3v-5.2H625.5z
		 M637.3,292v22.1h-6.2V267h6.2v19.8h7.1v5.2H637.3z"/>
	<path class="st16" d="M668.4,302.7c-3.6-2.8-6.3-6-8.2-9.5c-2.2,4.5-4.8,8-7.9,10.6l-4.7-3.7c2.9-1.9,5.2-4.5,6.9-7.8
		c1.8-3.3,2.6-6.7,2.6-10.3v-3h-7.9v-5.2h7.9v-6h6v6h8v5.2h-7.9v3.3c0,3.3,0.8,6.4,2.5,9.4c1.7,2.9,4,5.2,6.9,6.8L668.4,302.7z
		 M674.1,312.7V289h-6.6v-5h6.6v-16h6v44.8L674.1,312.7L674.1,312.7z M683.4,314.1V267h6.1v47.1H683.4z"/>
	<path class="st16" d="M717.2,296.1v-3.4h-18.8v-5.2h43.7v5.2h-18.8v3.4c4.2,0.3,7.4,1.3,9.6,2.8c2.2,1.6,3.3,3.6,3.3,6.1
		c0,2.9-1.4,5.1-4.1,6.7c-2.8,1.6-6.7,2.4-11.9,2.4c-5.1,0-9.1-0.8-11.9-2.4c-2.8-1.6-4.1-3.8-4.1-6.7c0-2.6,1.1-4.6,3.3-6.2
		C709.9,297.3,713.1,296.4,717.2,296.1z M737.4,285c-7.6-1.3-13.2-3.8-17-7.6c-1.4,1.6-3.7,3.2-7,4.6c-3.3,1.5-6.5,2.4-9.8,2.9
		l-3.4-4.5c3.9-0.3,7.4-1.1,10.5-2.5s5.1-2.9,6-4.7h-13.1V268h33.7v5.2h-13.1c1,1.8,3.1,3.4,6.2,4.8c3.1,1.4,6.4,2.2,10,2.4
		L737.4,285z M720.3,301c-6.5,0-9.7,1.3-9.7,4c0,1.3,0.8,2.3,2.5,3c1.6,0.7,4.1,1.1,7.3,1.1s5.6-0.4,7.3-1.1c1.6-0.7,2.5-1.7,2.5-3
		C730.1,302.4,726.8,301,720.3,301z"/>
</g>
<g>
	<path class="st17" d="M712.8,443.1v-31h6v10.6h10.9v-10.6h6.1v31H712.8z M729.6,428h-10.9v10h10.9V428z M743.6,455.9v-47.1h6v47.1
		H743.6z"/>
	<path class="st17" d="M762.2,433.2v-21.4h22v21.4H762.2z M778.2,416.9h-9.9v11.2h9.9V416.9z M768.6,454.2v-16.1h6.2V449h24.6v5.2
		H768.6z M798,427.9v14.8h-6v-33.9h6.1v14h7.2v5.2H798V427.9z"/>
</g>
<g>
	<path class="st18" d="M200.1,442.6v-29.8h22.8v29.8H200.1z M216.9,417.9h-10.6v19.6h10.6V417.9z M235.7,432v23.9h-6.1v-47.1h6.1
		v18.1h7.4v5.2h-7.4V432z"/>
	<path class="st18" d="M247.8,436.9v-5.1h43.7v5.1H247.8z M254.2,455v-15.3h30.9V455H254.2z M254.7,429v-12.2h23.8v-2.4h-23.8v-5
		h29.9v11.9h-23.8v2.7h24.8v5H254.7z M279,444.8h-18.7v5.1H279V444.8z"/>
</g>
<g>
	<path class="st19" d="M411.8,28.9v9.6c0,0.4,0.1,0.7,0.3,0.9c0.2,0.2,0.5,0.4,1,0.5v0.6h-8.3v-0.6c0.5-0.1,0.8-0.3,1-0.5
		s0.3-0.5,0.3-0.9V15.9c0-0.4-0.1-0.7-0.3-0.9c-0.2-0.2-0.5-0.4-1-0.5v-0.6h23.6c0.4,0,0.7-0.1,0.9-0.3c0.2-0.2,0.4-0.5,0.5-1h0.6
		v6.9h-0.6c-0.1-0.5-0.3-0.8-0.5-1s-0.5-0.3-0.9-0.3h-16.5v6.4h10.8c0.4,0,0.7-0.1,0.9-0.3c0.2-0.2,0.4-0.5,0.5-1h0.6V30H424
		c-0.1-0.5-0.3-0.8-0.5-1s-0.5-0.3-0.9-0.3h-10.8V28.9z"/>
	<path class="st19" d="M440.9,28.8v7.3H458c0.4,0,0.7-0.1,0.9-0.3c0.2-0.2,0.4-0.5,0.5-1h0.6v6.9h-0.6c-0.1-0.5-0.3-0.8-0.5-1
		s-0.5-0.3-0.9-0.3h-24.2v-0.6c0.5-0.1,0.8-0.3,1-0.5s0.3-0.5,0.3-0.9V15.9c0-0.4-0.1-0.7-0.3-0.9c-0.2-0.2-0.5-0.4-1-0.5v-0.6h23.8
		c0.4,0,0.7-0.1,0.9-0.3c0.2-0.2,0.4-0.5,0.5-1h0.6v6.9H459c-0.1-0.5-0.3-0.8-0.5-1s-0.5-0.3-0.9-0.3h-16.7v6.3h10.8
		c0.4,0,0.7-0.1,0.9-0.3c0.2-0.2,0.4-0.5,0.5-1h0.6v6.7h-0.6c-0.1-0.5-0.3-0.8-0.5-1s-0.5-0.3-0.9-0.3h-10.8V28.8z"/>
	<path class="st19" d="M480.6,40.5l-9.8-18.4v16.4c0,0.4,0.1,0.7,0.3,0.9c0.2,0.2,0.5,0.4,1,0.5v0.6h-7.8v-0.6
		c0.5-0.1,0.8-0.3,1-0.5s0.3-0.5,0.3-0.9V15.9c0-0.4-0.1-0.7-0.3-0.9c-0.2-0.2-0.5-0.4-1-0.5v-0.6h10.3v0.6
		c-0.6,0.2-0.9,0.5-0.9,1.1c0,0.3,0.1,0.6,0.3,0.9l7.3,13.8l7.4-13.5c0.3-0.6,0.5-1,0.5-1.3c0-0.5-0.3-0.8-1-0.9V14h10.1v0.6
		c-0.5,0.1-0.8,0.3-1,0.5S497,15.6,497,16v22.6c0,0.4,0.1,0.7,0.3,0.9c0.2,0.2,0.5,0.4,1,0.5v0.6H490V40c0.5-0.1,0.8-0.3,1-0.5
		s0.3-0.5,0.3-0.9V22.1L480.6,40.5z"/>
	<path class="st19" d="M522.4,33.7h-12.1l-1.8,3.8c-0.2,0.5-0.4,0.9-0.4,1.2c0,0.6,0.4,1,1.3,1.2v0.6h-8.8v-0.6
		c0.5-0.1,0.9-0.3,1.2-0.5c0.3-0.3,0.6-0.8,0.9-1.5l9.8-20.5c0.3-0.7,0.5-1.2,0.5-1.6c0-0.6-0.4-1-1.1-1.3v-0.6h9.5v0.6
		c-0.8,0.2-1.2,0.6-1.2,1.2c0,0.4,0.1,0.8,0.4,1.3l10.2,20.5c0.4,0.9,0.8,1.5,1.1,1.8s0.8,0.5,1.3,0.6v0.6h-9.8v-0.6
		c0.9-0.1,1.3-0.5,1.3-1.2c0-0.3-0.1-0.7-0.4-1.2L522.4,33.7z M520.7,30.1l-4.3-9.5l-4.4,9.5H520.7z"/>
	<path class="st19" d="M542.5,36.1h16.4c0.4,0,0.7-0.1,0.9-0.3s0.4-0.5,0.5-1h0.6v6.9h-0.6c-0.1-0.5-0.3-0.8-0.5-1s-0.5-0.3-0.9-0.3
		h-23.5v-0.6c0.5-0.1,0.8-0.3,1-0.5s0.3-0.5,0.3-0.9V15.9c0-0.4-0.1-0.7-0.3-0.9s-0.5-0.4-1-0.5v-0.6h8.3v0.6
		c-0.5,0.1-0.8,0.3-1,0.5s-0.3,0.5-0.3,0.9L542.5,36.1L542.5,36.1z"/>
	<path class="st19" d="M570.8,28.8v7.3h17.1c0.4,0,0.7-0.1,0.9-0.3s0.4-0.5,0.5-1h0.6v6.9h-0.6c-0.1-0.5-0.3-0.8-0.5-1
		s-0.5-0.3-0.9-0.3h-24.2v-0.6c0.5-0.1,0.8-0.3,1-0.5s0.3-0.5,0.3-0.9V15.9c0-0.4-0.1-0.7-0.3-0.9s-0.5-0.4-1-0.5v-0.6h23.8
		c0.4,0,0.7-0.1,0.9-0.3s0.4-0.5,0.5-1h0.6v6.9h-0.6c-0.1-0.5-0.3-0.8-0.5-1s-0.5-0.3-0.9-0.3h-16.7v6.3h10.8c0.4,0,0.7-0.1,0.9-0.3
		c0.2-0.2,0.4-0.5,0.5-1h0.6v6.7H583c-0.1-0.5-0.3-0.8-0.5-1s-0.5-0.3-0.9-0.3h-10.8V28.8z"/>
</g>
<g>
	<path class="st18" d="M450.9,90.2L441,71.8v16.4c0,0.4,0.1,0.7,0.3,0.9c0.2,0.2,0.5,0.4,1,0.5v0.6h-7.8v-0.6c0.5-0.1,0.8-0.3,1-0.5
		s0.3-0.5,0.3-0.9V65.6c0-0.4-0.1-0.7-0.3-0.9c-0.2-0.2-0.5-0.4-1-0.5v-0.6h10.3v0.6c-0.6,0.2-0.9,0.5-0.9,1.1
		c0,0.3,0.1,0.6,0.3,0.9l7.3,13.8l7.4-13.5c0.3-0.6,0.5-1,0.5-1.3c0-0.5-0.3-0.8-1-0.9v-0.6h10.1v0.6c-0.5,0.1-0.8,0.3-1,0.5
		s-0.3,0.5-0.3,0.9v22.6c0,0.4,0.1,0.7,0.3,0.9c0.2,0.2,0.5,0.4,1,0.5v0.6H460v-0.6c0.5-0.1,0.8-0.3,1-0.5s0.3-0.5,0.3-0.9V71.8
		L450.9,90.2z"/>
	<path class="st18" d="M492.6,83.4h-12.1l-1.8,3.8c-0.2,0.5-0.4,0.9-0.4,1.2c0,0.6,0.4,1,1.3,1.2v0.6h-8.8v-0.6
		c0.5-0.1,0.9-0.3,1.2-0.5c0.3-0.3,0.6-0.8,0.9-1.5l9.8-20.5c0.3-0.7,0.5-1.2,0.5-1.6c0-0.6-0.4-1-1.1-1.3v-0.6h9.5v0.6
		c-0.8,0.2-1.2,0.6-1.2,1.2c0,0.4,0.1,0.8,0.4,1.3L501,87.2c0.4,0.9,0.8,1.5,1.1,1.8c0.3,0.3,0.8,0.5,1.3,0.6v0.6h-9.8v-0.6
		c0.9-0.1,1.3-0.5,1.3-1.2c0-0.3-0.1-0.7-0.4-1.2L492.6,83.4z M491,79.8l-4.3-9.5l-4.4,9.5H491z"/>
	<path class="st18" d="M512.7,85.8h16.4c0.4,0,0.7-0.1,0.9-0.3c0.2-0.2,0.4-0.5,0.5-1h0.6v6.9h-0.6c-0.1-0.5-0.3-0.8-0.5-1
		s-0.5-0.3-0.9-0.3h-23.5v-0.6c0.5-0.1,0.8-0.3,1-0.5s0.3-0.5,0.3-0.9V65.6c0-0.4-0.1-0.7-0.3-0.9c-0.2-0.2-0.5-0.4-1-0.5v-0.6h8.3
		v0.6c-0.5,0.1-0.8,0.3-1,0.5s-0.3,0.5-0.3,0.9L512.7,85.8L512.7,85.8z"/>
	<path class="st18" d="M541,78.5v7.3h17.1c0.4,0,0.7-0.1,0.9-0.3c0.2-0.2,0.4-0.5,0.5-1h0.6v6.9h-0.6c-0.1-0.5-0.3-0.8-0.5-1
		s-0.5-0.3-0.9-0.3H534v-0.6c0.5-0.1,0.8-0.3,1-0.5s0.3-0.5,0.3-0.9V65.6c0-0.4-0.1-0.7-0.3-0.9c-0.2-0.2-0.5-0.4-1-0.5v-0.6h23.8
		c0.4,0,0.7-0.1,0.9-0.3s0.4-0.5,0.5-1h0.6v6.9h-0.6c-0.1-0.5-0.3-0.8-0.5-1s-0.5-0.3-0.9-0.3H541v6.3h10.8c0.4,0,0.7-0.1,0.9-0.3
		c0.2-0.2,0.4-0.5,0.5-1h0.6v6.7h-0.6c-0.1-0.5-0.3-0.8-0.5-1s-0.5-0.3-0.9-0.3H541V78.5z"/>
</g>
<g>
	<path class="st18" d="M66.9,488l-7.2-0.4l0-0.6c0.5-0.1,0.8-0.2,1-0.4c0.2-0.1,0.2-0.3,0.2-0.6c0-0.1,0-0.3-0.1-0.6l-0.4-1.7
		l-1.2-0.1c-0.4,0-0.7,0.1-0.9,0.2c-0.2,0.2-0.4,0.5-0.6,1l-0.6,0l0.4-8.3l0.6,0c0.1,0.5,0.3,0.8,0.5,1c0.2,0.2,0.5,0.3,0.9,0.3
		l23,1.1c0.4,0,0.7-0.1,0.9-0.2c0.2-0.2,0.4-0.5,0.6-1l0.6,0l-0.4,8.3l-0.6,0c-0.1-0.5-0.3-0.8-0.5-1c-0.2-0.2-0.5-0.3-0.9-0.3
		L65.2,484l0.4,1.9c0.1,0.4,0.2,0.8,0.4,1c0.2,0.2,0.5,0.4,1,0.5L66.9,488z"/>
	<path class="st18" d="M59,454.9c0.4-3.5,1.9-6.4,4.4-8.5c2.9-2.4,6.6-3.3,11.1-2.8c1.4,0.2,2.8,0.5,4.3,1.1s2.6,1.2,3.6,2
		c1.8,1.4,3,3.1,3.8,5.2c0.7,1.8,0.9,3.8,0.7,6c-0.4,3.5-1.9,6.4-4.4,8.4c-1.2,1-2.6,1.7-4.1,2.2c-2.2,0.7-4.5,0.9-6.8,0.6
		c-3.2-0.4-5.9-1.4-8.1-3.1c-1.7-1.4-3-3.1-3.8-5.2C59,459.1,58.8,457.1,59,454.9z M63.6,455.4c-0.2,2.1,0.5,3.9,2.2,5.3
		c1.6,1.3,3.7,2.1,6.2,2.4s4.8-0.1,6.6-1c2-1,3.1-2.6,3.3-4.7c0.2-2.1-0.5-3.9-2.2-5.3c-1.6-1.3-3.6-2.1-6.1-2.4
		c-2.7-0.3-4.9,0-6.7,1C65,451.7,63.9,453.3,63.6,455.4z"/>
	<path class="st18" d="M136.3,268l-6-4l0.4-0.5c0.5,0.2,0.8,0.2,1,0.2c0.2,0,0.4-0.2,0.5-0.4c0.1-0.1,0.2-0.3,0.2-0.5l0.6-1.7
		l-1-0.7c-0.3-0.2-0.6-0.3-0.9-0.3s-0.6,0.2-1,0.5l-0.5-0.4l4.6-6.9l0.5,0.4c-0.2,0.5-0.2,0.8-0.1,1.1c0.1,0.3,0.3,0.5,0.6,0.7
		l19.1,12.8c0.3,0.2,0.7,0.3,0.9,0.3c0.3,0,0.6-0.2,1-0.5l0.5,0.4l-4.6,6.9l-0.5-0.4c0.2-0.5,0.2-0.8,0.1-1.1
		c-0.1-0.3-0.3-0.5-0.6-0.8l-14.3-9.5l-0.7,1.8c-0.2,0.4-0.2,0.8-0.1,1c0.1,0.3,0.2,0.6,0.6,1L136.3,268z"/>
	<path class="st18" d="M157.9,261l-2.1-7.6l0.6-0.2c0.2,0.3,0.4,0.5,0.6,0.6c0.5,0.4,1.4,0.4,2.6-0.1c2.5-0.9,4.5-2.4,6.2-4.6
		c1.2-1.6,1.8-3.1,1.9-4.5c0-1.5-0.6-2.8-1.9-3.8c-1.2-0.9-2.5-1.1-3.9-0.7c-1.4,0.4-2.7,1.4-4,3c-0.9,1.2-1.6,2.4-2,3.8
		c-0.4,1.3-0.4,2.2,0,2.5c0.1,0.1,0.4,0.2,0.8,0.3l0,0.6l-9.8,1.3l-0.1-0.6c0.1-0.1,0.1-0.1,0.2-0.2c0.4-0.5,0.3-1-0.4-1.5L142,246
		c-0.3-0.3-0.7-0.4-1-0.4c-0.3,0-0.6,0.2-1,0.5l-0.5-0.4l13-17.1c0.2-0.3,0.4-0.6,0.3-0.9c0-0.3-0.2-0.6-0.5-1l0.4-0.5l5.7,4.3
		l-0.4,0.5c-0.5-0.2-0.8-0.2-1.1-0.2s-0.5,0.2-0.8,0.6l-9.4,12.3l4.7,3.5c0.5-2.4,1.6-4.7,3.3-7.1c2.3-3,4.8-4.8,7.5-5.5
		c2.5-0.6,4.8-0.1,7,1.5c1.6,1.2,2.7,2.8,3.3,4.8c1,3.3-0.1,7-3.1,10.9c-1.9,2.6-4.1,4.4-6.4,5.6c-0.6,0.3-1.5,0.7-2.9,1.3
		c-0.6,0.2-1,0.5-1.3,0.9c-0.2,0.2-0.3,0.6-0.3,1.2L157.9,261z"/>
	<path class="st18" d="M351.2,109.8l15.6-5.7c0.4-0.1,0.6-0.3,0.8-0.6s0.2-0.6,0.1-1.1l0.6-0.2l2.5,7l-0.6,0.2
		c-0.3-0.4-0.6-0.7-0.8-0.8c-0.3-0.1-0.6-0.1-1,0.1l-19.9,7.2c-0.6,0.2-1,0.5-1.2,0.7c-0.2,0.2-0.2,0.6-0.2,1.2l-0.6,0.2
		c-0.2-0.6-0.4-1-0.5-1.2c-0.6-1.6-0.9-3-0.9-4.1c0-2.4,0.7-4.6,2.2-6.8c0.8-1.1,2.1-2.6,4.1-4.6l2.6-2.6c1.2-1.2,2-2.3,2.4-3.3
		s0.4-1.9,0-2.9c-0.4-1.1-1.1-1.9-2.1-2.2c-1-0.3-2.2-0.2-3.7,0.3c-1.8,0.7-3.3,1.7-4.6,3.2c-1.2,1.4-1.6,2.5-1.3,3.4
		c0.1,0.2,0.3,0.6,0.7,1.1l-0.3,0.6l-6.9-3.6l0.3-0.6c0.6,0.1,0.9,0,1.2,0c0.2-0.1,0.4-0.2,0.5-0.3c0.1-0.1,0.3-0.5,0.6-1.1
		c1.9-3.4,4.8-5.8,8.9-7.2c2.9-1,5.5-1.2,7.7-0.4c2.3,0.8,3.9,2.4,4.7,4.8c0.9,2.4,0.7,4.6-0.4,6.8c-0.7,1.4-1.9,2.9-3.5,4.4
		l-2.4,2.3c-0.2,0.3-0.8,0.8-1.7,1.6c-1.1,1-1.9,1.8-2.3,2.3C351.7,108.4,351.4,109.1,351.2,109.8z"/>
	<path class="st18" d="M377.9,77.1c3.4-1,6.6-0.7,9.5,0.9c3.3,1.8,5.5,4.9,6.8,9.2c0.4,1.4,0.6,2.8,0.6,4.4c0,1.5-0.1,2.9-0.5,4.1
		c-0.6,2.2-1.8,4-3.4,5.5c-1.4,1.3-3.2,2.3-5.3,2.9c-3.4,1-6.6,0.7-9.5-0.9c-1.4-0.8-2.6-1.8-3.6-2.9c-1.4-1.8-2.5-3.8-3.2-6.1
		c-0.9-3.1-0.9-6-0.2-8.7c0.6-2.1,1.7-3.9,3.4-5.5C374,78.7,375.7,77.8,377.9,77.1z M379.1,81.6c-2,0.6-3.4,1.9-4.1,4.1
		c-0.6,2-0.6,4.2,0.1,6.7c0.7,2.5,1.9,4.4,3.4,5.7c1.7,1.5,3.6,1.9,5.6,1.3c2.1-0.6,3.4-1.9,4.1-4.1c0.6-2,0.6-4.2-0.1-6.6
		c-0.7-2.6-1.9-4.5-3.5-5.9C383.1,81.4,381.2,81,379.1,81.6z"/>
	<path class="st18" d="M617,99.2l15.9,4.8c0.4,0.1,0.7,0.1,1,0c0.3-0.1,0.5-0.4,0.8-0.8l0.6,0.2l-2.2,7.1l-0.6-0.2
		c0-0.5-0.1-0.9-0.2-1.1c-0.1-0.2-0.4-0.4-0.8-0.5l-20.2-6.1c-0.6-0.2-1.1-0.3-1.4-0.2c-0.3,0.1-0.5,0.4-0.8,0.8l-0.6-0.2
		c0.2-0.6,0.3-1,0.4-1.2c0.5-1.6,1.1-2.9,1.8-3.8c1.4-1.9,3.3-3.3,5.8-4.1c1.3-0.4,3.3-0.8,6-1.2l3.7-0.5c1.7-0.2,3-0.6,3.9-1.2
		s1.5-1.3,1.8-2.3c0.4-1.2,0.2-2.2-0.4-3c-0.6-0.8-1.7-1.5-3.2-2c-1.8-0.6-3.7-0.6-5.5-0.2c-1.8,0.4-2.8,1.1-3.1,2
		c-0.1,0.2-0.1,0.6-0.1,1.3l-0.6,0.3l-3.4-7l0.6-0.3c0.4,0.4,0.7,0.6,1,0.7c0.2,0.1,0.4,0.1,0.6,0c0.2,0,0.6-0.2,1.2-0.5
		c3.5-1.6,7.3-1.7,11.4-0.5c2.9,0.9,5.1,2.3,6.4,4.3c1.3,2,1.6,4.2,0.9,6.7c-0.7,2.4-2.2,4.1-4.4,5.2c-1.4,0.7-3.2,1.2-5.4,1.4
		l-3.3,0.4c-0.4,0.1-1.1,0.1-2.3,0.2c-1.5,0.1-2.5,0.3-3.2,0.5C618.3,98.5,617.7,98.8,617,99.2z"/>
	<path class="st18" d="M636.8,107.1l6.7-4.2l0.4,0.5c-0.2,0.3-0.4,0.5-0.4,0.8c-0.2,0.6,0,1.5,0.8,2.5c1.6,2.1,3.6,3.7,6.1,4.6
		c1.9,0.7,3.5,0.9,4.9,0.5c1.5-0.4,2.5-1.4,3.1-2.9c0.5-1.4,0.4-2.7-0.4-3.9c-0.8-1.2-2.2-2.2-4-2.9c-1.4-0.5-2.8-0.8-4.2-0.8
		c-1.4,0-2.2,0.2-2.4,0.7c-0.1,0.2-0.1,0.5,0,0.8l-0.6,0.2l-4-9.1l0.6-0.3c0.1,0.1,0.2,0.1,0.2,0.1c0.6,0.2,1,0,1.3-0.8l2-5.4
		c0.2-0.4,0.2-0.8,0.1-1c-0.1-0.3-0.3-0.6-0.7-0.8l0.2-0.6l20.1,7.7c0.4,0.1,0.7,0.2,1,0.1c0.3-0.1,0.5-0.3,0.8-0.7l0.6,0.2
		l-2.6,6.7l-0.6-0.2c0-0.5,0-0.9-0.1-1.1c-0.1-0.2-0.4-0.4-0.8-0.6l-14.5-5.5l-2.1,5.5c2.4-0.2,5,0.2,7.7,1.2c3.5,1.3,6,3.2,7.4,5.6
		c1.3,2.2,1.5,4.6,0.5,7.1c-0.7,1.9-1.9,3.4-3.6,4.5c-2.9,1.9-6.7,1.9-11.4,0.1c-3-1.1-5.4-2.7-7.1-4.6c-0.4-0.5-1.1-1.3-2-2.4
		c-0.4-0.5-0.8-0.8-1.2-1c-0.2-0.1-0.7-0.1-1.3,0L636.8,107.1z"/>
	<path class="st18" d="M846,247.7c0.9,3.1,0.3,5.5-2,7.2c-2.3,1.8-4.9,2.1-7.7,1c-2.4-1-4.7-2.8-6.8-5.5c-2.2-2.9-3.7-5.9-4.3-9.1
		c-0.3-1.3-0.5-2.2-0.7-2.4c-0.2-0.3-0.7-0.5-1.4-0.6l-0.1-0.6l7.7-2l0.2,0.6c-0.2,0-0.3,0.1-0.4,0.2c-0.6,0.4-0.9,1.1-0.9,2.1
		c0,1.2,0.3,2.7,1,4.4c0.7,1.7,1.6,3.2,2.6,4.6c1,1.3,2.1,2.3,3.3,2.9c1.5,0.8,2.8,0.7,4-0.2c1-0.8,1.4-1.8,1.3-3
		c-0.1-1.2-0.9-2.7-2.1-4.4c-0.8-1-1.4-1.6-1.8-1.9c-0.4-0.3-0.9-0.3-1.4-0.1l-0.4-0.5l5.3-4.1l0.4,0.5c-0.4,0.5-0.5,1-0.4,1.4
		c0.1,0.5,0.6,1.2,1.3,2.2c1.2,1.6,2.4,2.5,3.6,2.9c1,0.4,2,0.2,2.8-0.5c0.9-0.7,1.3-1.6,1.1-2.8c-0.1-1.2-0.8-2.5-1.9-4
		c-1.6-2.1-3.5-3.6-5.7-4.5c-1.1-0.4-1.8-0.4-2.3,0c-0.2,0.2-0.4,0.4-0.6,0.8l-0.6-0.2l1.7-7.1l0.6,0.2c0.1,0.5,0.3,0.9,0.4,1.1
		c0.2,0.2,0.5,0.4,1,0.6c3.8,1.3,7,3.5,9.5,6.8c1.7,2.3,2.8,4.5,3.1,6.8c0.2,1.3,0,2.5-0.4,3.6c-0.5,1.2-1.2,2.2-2.3,3
		C850.6,248.5,848.4,248.7,846,247.7z"/>
	<path class="st18" d="M869.2,257.7c2,3,2.7,6.1,2,9.3c-0.7,3.7-2.9,6.8-6.7,9.3c-1.2,0.8-2.5,1.4-4,1.9c-1.4,0.5-2.8,0.7-4.1,0.8
		c-2.3,0.1-4.3-0.5-6.3-1.6c-1.7-1-3.1-2.4-4.3-4.1c-2-3-2.7-6.1-2-9.3c0.3-1.6,0.9-3,1.7-4.3c1.2-1.9,2.9-3.5,4.9-4.9
		c2.7-1.8,5.4-2.7,8.2-2.8c2.2-0.1,4.3,0.5,6.3,1.6C866.5,254.5,867.9,255.8,869.2,257.7z M865.4,260.2c-1.2-1.8-2.9-2.6-5.1-2.6
		c-2.1,0-4.2,0.7-6.3,2.1s-3.6,3.1-4.4,5c-0.9,2.1-0.7,4,0.5,5.8c1.2,1.8,2.9,2.7,5.1,2.7c2.1,0,4.2-0.7,6.2-2.1
		c2.2-1.5,3.7-3.2,4.5-5.1C866.7,264,866.5,262,865.4,260.2z"/>
	<path class="st18" d="M927.5,454.6c-0.7,3.1-2.5,4.9-5.4,5.3c-2.9,0.4-5.3-0.6-7.2-3c-1.6-2.1-2.7-4.8-3.1-8.2
		c-0.5-3.6-0.2-6.9,0.8-10c0.4-1.3,0.6-2.1,0.6-2.5c0-0.3-0.3-0.7-0.9-1.2l0.2-0.6l7.7,2.2l-0.2,0.6c-0.2,0-0.3-0.1-0.4,0
		c-0.7,0.1-1.3,0.5-1.8,1.3c-0.6,1-1.1,2.5-1.3,4.3c-0.3,1.8-0.3,3.6,0,5.3c0.2,1.7,0.7,3,1.4,4.1c0.9,1.4,2.1,2,3.5,1.8
		c1.3-0.2,2.1-0.8,2.7-2s0.6-2.8,0.3-4.8c-0.2-1.3-0.4-2.1-0.6-2.6c-0.2-0.5-0.7-0.7-1.2-0.8l-0.1-0.6l6.6-0.9l0.1,0.6
		c-0.6,0.2-0.9,0.6-1,1c-0.1,0.5-0.1,1.3,0.1,2.5c0.3,1.9,0.8,3.4,1.6,4.3c0.7,0.8,1.6,1.2,2.7,1c1.1-0.1,1.9-0.8,2.4-1.9
		s0.6-2.6,0.3-4.5c-0.4-2.7-1.2-4.9-2.7-6.8c-0.7-0.9-1.4-1.3-2-1.2c-0.2,0-0.5,0.2-0.9,0.4l-0.5-0.4l5-5.3l0.5,0.4
		c-0.2,0.5-0.2,0.9-0.2,1.1c0,0.3,0.2,0.6,0.6,1c2.7,3,4.3,6.5,4.8,10.6c0.4,2.8,0.1,5.3-0.7,7.4c-0.5,1.2-1.2,2.2-2.2,3
		c-1,0.8-2.1,1.3-3.4,1.4C931.2,457.6,929.2,456.7,927.5,454.6z"/>
	<path class="st18" d="M917.5,463.1l6.6,4.4l-0.3,0.5c-0.4-0.1-0.6-0.1-0.9-0.1c-0.7,0-1.3,0.6-1.9,1.7c-1.3,2.3-1.8,4.8-1.7,7.5
		c0.1,2,0.6,3.5,1.6,4.6c1,1.2,2.3,1.7,3.9,1.6c1.5-0.1,2.6-0.8,3.4-2c0.8-1.3,1.1-2.9,1-4.9c-0.1-1.5-0.4-2.9-1-4.2
		c-0.6-1.3-1.1-1.9-1.7-1.9c-0.2,0-0.4,0.1-0.8,0.3l-0.4-0.4l6.6-7.4l0.5,0.4c0,0.1,0,0.2,0,0.3c0,0.6,0.5,0.9,1.3,0.9l5.7-0.4
		c0.4,0,0.8-0.1,1-0.4s0.4-0.5,0.5-1l0.6,0l1.4,21.5c0,0.4,0.1,0.7,0.3,0.9s0.5,0.3,1,0.5l0,0.6l-7.2,0.5l0-0.6
		c0.5-0.2,0.8-0.4,1-0.6c0.2-0.2,0.2-0.5,0.2-0.9l-1-15.5l-5.8,0.4c1.2,2.1,1.9,4.6,2.1,7.5c0.2,3.8-0.4,6.8-2.1,9.1
		c-1.5,2.1-3.6,3.2-6.3,3.4c-2,0.1-3.9-0.4-5.6-1.5c-2.9-1.9-4.5-5.3-4.8-10.3c-0.2-3.2,0.2-6,1.2-8.4c0.2-0.6,0.7-1.5,1.4-2.9
		c0.3-0.6,0.4-1.1,0.4-1.5c0-0.3-0.2-0.6-0.5-1.1L917.5,463.1z"/>
</g>
<g>
	<path class="st19" d="M24.5,481.5l-7.2-0.4l0-0.6c0.5-0.1,0.8-0.2,1-0.4c0.2-0.1,0.2-0.3,0.2-0.6c0-0.1,0-0.3-0.1-0.6l-0.4-1.7
		l-1.2-0.1c-0.4,0-0.7,0.1-0.9,0.2c-0.2,0.2-0.4,0.5-0.6,1l-0.6,0l0.4-8.3l0.6,0c0.1,0.5,0.3,0.8,0.5,1c0.2,0.2,0.5,0.3,0.9,0.3
		l23,1.2c0.4,0,0.7-0.1,0.9-0.2c0.2-0.2,0.4-0.5,0.6-1l0.6,0l-0.4,8.3l-0.6,0c-0.1-0.5-0.3-0.8-0.5-1c-0.2-0.2-0.5-0.3-0.9-0.3
		l-17.2-0.9l0.4,1.9c0.1,0.4,0.2,0.8,0.4,1c0.2,0.2,0.5,0.4,1,0.5L24.5,481.5z"/>
	<path class="st19" d="M39.4,464.4l-5.8-5.4l0.4-0.5c0.3,0.1,0.6,0.2,0.9,0.2c0.7,0.1,1.4-0.4,2.2-1.4c1.7-2.1,2.6-4.4,2.9-7.1
		c0.2-2,0-3.6-0.8-4.8c-0.8-1.3-2-2.1-3.5-2.3c-1.5-0.2-2.7,0.3-3.7,1.4s-1.6,2.7-1.8,4.7c-0.2,1.5-0.1,2.9,0.3,4.3
		c0.3,1.4,0.8,2.1,1.3,2.1c0.2,0,0.5,0,0.8-0.2L33,456l-7.7,6.2l-0.4-0.5c0-0.1,0-0.2,0-0.3c0.1-0.6-0.3-1-1.1-1.1l-5.7-0.6
		c-0.4,0-0.8,0-1,0.2c-0.2,0.2-0.5,0.5-0.6,0.9l-0.6-0.1l2.3-21.4c0-0.4,0-0.7-0.2-0.9s-0.5-0.4-0.9-0.6l0.1-0.6l7.1,0.8l-0.1,0.6
		c-0.5,0.1-0.8,0.2-1,0.4c-0.2,0.2-0.3,0.5-0.4,0.9L21,455.3l5.8,0.6c-0.9-2.3-1.1-4.9-0.8-7.7c0.4-3.8,1.6-6.6,3.6-8.6
		c1.8-1.8,4.1-2.6,6.7-2.3c2,0.2,3.8,1,5.3,2.4c2.6,2.3,3.6,6,3,10.9c-0.3,3.2-1.2,5.9-2.6,8.1c-0.3,0.5-0.9,1.4-1.8,2.6
		c-0.4,0.5-0.6,1-0.7,1.5c0,0.2,0.1,0.7,0.3,1.2L39.4,464.4z"/>
	<path class="st19" d="M110.2,249.3l9.2-13.8c0.2-0.3,0.3-0.7,0.3-0.9c0-0.3-0.2-0.6-0.5-1l0.4-0.5l6.2,4.1l-0.4,0.5
		c-0.5-0.2-0.8-0.2-1.1-0.1c-0.3,0.1-0.5,0.3-0.7,0.6l-11.7,17.6c-0.4,0.6-0.6,1-0.6,1.3c0,0.3,0.2,0.6,0.6,1l-0.4,0.5
		c-0.6-0.4-0.9-0.6-1.1-0.7c-1.4-0.9-2.5-1.9-3.2-2.8c-1.4-1.9-2.2-4.1-2.3-6.8c-0.1-1.4,0.1-3.4,0.6-6.1l0.6-3.6
		c0.3-1.7,0.3-3.1,0-4.1c-0.3-1-0.8-1.8-1.7-2.4c-1-0.7-2-0.8-3-0.5c-1,0.3-1.9,1.2-2.8,2.5c-1.1,1.6-1.7,3.4-1.8,5.3
		c-0.1,1.8,0.2,3,1,3.5c0.2,0.1,0.6,0.3,1.2,0.4l0.1,0.6l-7.7,1.3l-0.1-0.6c0.5-0.3,0.8-0.5,0.9-0.7c0.1-0.2,0.2-0.4,0.2-0.5
		c0-0.2,0-0.6-0.1-1.3c-0.5-3.8,0.4-7.5,2.8-11.1c1.7-2.6,3.7-4.2,6-4.9c2.3-0.7,4.5-0.4,6.7,1.1c2.1,1.4,3.3,3.3,3.7,5.7
		c0.2,1.6,0.2,3.4-0.2,5.6l-0.5,3.3c0,0.4-0.2,1.1-0.4,2.3c-0.3,1.5-0.5,2.5-0.5,3.2C109.8,247.8,109.9,248.5,110.2,249.3z"/>
	<path class="st19" d="M112,207.1c2.2-2.8,4.9-4.5,8.1-5c3.7-0.5,7.3,0.6,11,3.3c1.1,0.9,2.2,1.9,3.1,3.1c0.9,1.2,1.6,2.4,2.1,3.6
		c0.8,2.1,1,4.3,0.6,6.4c-0.4,1.9-1.2,3.7-2.5,5.5c-2.2,2.8-4.9,4.5-8.1,5c-1.6,0.2-3.1,0.2-4.6-0.2c-2.2-0.5-4.3-1.5-6.2-3
		c-2.6-2-4.4-4.2-5.3-6.8c-0.8-2.1-1-4.2-0.6-6.4C109.9,210.7,110.7,208.9,112,207.1z M115.7,209.9c-1.3,1.7-1.5,3.6-0.8,5.7
		c0.7,2,2.1,3.7,4.1,5.3c2.1,1.6,4.1,2.4,6.2,2.5c2.2,0.1,4-0.6,5.3-2.3c1.3-1.7,1.6-3.6,0.8-5.7c-0.7-2-2-3.7-4-5.2
		c-2.1-1.6-4.2-2.5-6.3-2.6C118.8,207.4,117,208.2,115.7,209.9z"/>
	<path class="st19" d="M331.9,68l15.5-5.8c0.4-0.1,0.6-0.3,0.8-0.6c0.1-0.2,0.2-0.6,0.1-1.1l0.6-0.2l2.6,7l-0.6,0.2
		c-0.3-0.4-0.6-0.7-0.8-0.7c-0.3-0.1-0.6-0.1-1,0.1l-19.8,7.4c-0.6,0.2-1,0.5-1.2,0.7c-0.2,0.2-0.2,0.6-0.1,1.2l-0.6,0.2
		c-0.2-0.6-0.4-1-0.5-1.2c-0.6-1.6-0.9-3-0.9-4.1c0-2.4,0.7-4.6,2.1-6.8c0.8-1.1,2.1-2.7,4-4.6l2.6-2.6c1.2-1.2,2-2.3,2.4-3.3
		c0.4-1,0.4-2,0-2.9c-0.4-1.1-1.1-1.8-2.1-2.1s-2.2-0.2-3.7,0.4c-1.8,0.7-3.3,1.7-4.5,3.2c-1.2,1.4-1.6,2.6-1.3,3.5
		c0.1,0.2,0.3,0.6,0.7,1.1l-0.2,0.6l-7-3.5l0.3-0.6c0.6,0,0.9,0,1.2-0.1c0.2-0.1,0.4-0.2,0.5-0.3c0.1-0.1,0.3-0.5,0.6-1.1
		c1.8-3.4,4.8-5.8,8.8-7.3c2.9-1.1,5.4-1.2,7.7-0.5c2.3,0.8,3.9,2.4,4.8,4.8c0.9,2.4,0.8,4.6-0.3,6.8c-0.7,1.4-1.9,2.9-3.4,4.4
		l-2.4,2.4c-0.2,0.3-0.8,0.8-1.7,1.6c-1.1,1-1.8,1.8-2.2,2.3C332.5,66.6,332.1,67.2,331.9,68z"/>
	<path class="st19" d="M352.4,62.2l2.7-7.5l0.6,0.2c0,0.4,0.1,0.6,0.1,0.9c0.2,0.6,0.9,1.1,2.1,1.5c2.5,0.7,5.1,0.7,7.7-0.1
		c1.9-0.6,3.3-1.4,4.2-2.6c0.9-1.2,1.2-2.6,0.7-4.1c-0.4-1.4-1.3-2.4-2.7-2.8c-1.4-0.5-3.1-0.4-5,0.1c-1.4,0.4-2.7,1.1-3.8,1.9
		c-1.1,0.8-1.6,1.5-1.4,2c0.1,0.2,0.2,0.4,0.5,0.7l-0.3,0.5l-8.7-4.7l0.3-0.6c0.1,0,0.2,0,0.3-0.1c0.6-0.2,0.8-0.7,0.6-1.4l-1.7-5.5
		c-0.1-0.4-0.3-0.7-0.6-0.9s-0.6-0.2-1.1-0.2l-0.2-0.6l20.6-6.3c0.4-0.1,0.7-0.3,0.8-0.5c0.1-0.2,0.2-0.6,0.2-1.1l0.6-0.2l2.1,6.9
		l-0.6,0.2c-0.3-0.4-0.5-0.7-0.8-0.8s-0.6-0.1-1,0l-14.8,4.5l1.7,5.6c1.8-1.7,4-2.9,6.8-3.8c3.6-1.1,6.7-1.1,9.3-0.1
		c2.4,1,4,2.7,4.8,5.3c0.6,2,0.6,3.9-0.1,5.8c-1.2,3.3-4.1,5.6-8.9,7.1c-3.1,0.9-5.9,1.2-8.4,0.8c-0.6-0.1-1.7-0.3-3.1-0.7
		c-0.6-0.2-1.2-0.2-1.6,0c-0.2,0.1-0.6,0.3-1,0.8L352.4,62.2z"/>
	<path class="st19" d="M643.8,49.5c2.6,1.9,3.4,4.3,2.6,7c-0.8,2.8-2.7,4.6-5.6,5.3c-2.6,0.6-5.5,0.5-8.7-0.5
		c-3.5-1-6.4-2.7-8.8-4.9c-1-0.9-1.7-1.4-2-1.5c-0.3-0.1-0.8,0-1.5,0.3l-0.5-0.4l5.1-6.1l0.5,0.4c-0.1,0.1-0.2,0.3-0.2,0.4
		c-0.2,0.7,0,1.4,0.5,2.2c0.7,1,1.8,2,3.3,3c1.5,1,3.1,1.7,4.8,2.2c1.6,0.5,3,0.6,4.3,0.4c1.6-0.2,2.7-1,3.1-2.5
		c0.4-1.2,0.1-2.3-0.7-3.2c-0.8-0.9-2.3-1.7-4.3-2.3c-1.2-0.4-2.1-0.5-2.6-0.5c-0.5,0-0.9,0.3-1.2,0.8l-0.6-0.2l1.9-6.4l0.6,0.2
		c0,0.6,0.2,1.1,0.5,1.4s1.1,0.6,2.4,1c1.9,0.6,3.4,0.7,4.6,0.3c1-0.3,1.7-1,2-2c0.3-1.1,0.1-2.1-0.7-2.9c-0.8-0.9-2.1-1.6-3.9-2.1
		c-2.6-0.8-5-0.9-7.3-0.3c-1.1,0.3-1.8,0.7-1.9,1.3c-0.1,0.2-0.1,0.6,0,0.9L629,41l-2.8-6.7l0.6-0.2c0.4,0.4,0.7,0.6,1,0.6
		c0.3,0.1,0.6,0,1.2-0.1c3.8-1.2,7.7-1.2,11.7,0c2.7,0.8,4.9,2.1,6.4,3.7c0.9,0.9,1.5,2,1.8,3.2c0.3,1.2,0.3,2.5-0.1,3.7
		C648,47.4,646.4,48.8,643.8,49.5z"/>
	<path class="st19" d="M668.4,43.9c3.3,1.2,5.7,3.4,7.1,6.3c1.6,3.4,1.6,7.2,0,11.5c-0.5,1.3-1.2,2.6-2.1,3.9
		c-0.9,1.2-1.8,2.3-2.9,3c-1.8,1.4-3.8,2.2-6,2.4c-1.9,0.2-3.9-0.1-5.9-0.8c-3.3-1.2-5.7-3.4-7.1-6.4c-0.7-1.4-1-2.9-1.1-4.5
		c-0.1-2.3,0.2-4.5,1.1-6.8c1.1-3,2.8-5.4,5-7.1c1.7-1.3,3.7-2.2,6-2.4C664.4,42.9,666.3,43.1,668.4,43.9z M666.8,48.2
		c-2-0.7-3.9-0.4-5.7,0.9c-1.7,1.2-3,3-3.9,5.5s-1.1,4.6-0.6,6.7c0.5,2.2,1.8,3.6,3.8,4.4c2,0.7,3.9,0.4,5.7-0.9
		c1.7-1.2,3-3,3.8-5.4c0.9-2.5,1.2-4.8,0.7-6.8C670.1,50.4,668.8,49,666.8,48.2z"/>
	<path class="st19" d="M881,220c0.9,3.1,0.3,5.5-2,7.2c-2.3,1.8-4.9,2.1-7.7,1c-2.4-1-4.7-2.8-6.8-5.5c-2.2-2.9-3.6-5.9-4.3-9.1
		c-0.3-1.3-0.5-2.2-0.7-2.4c-0.2-0.3-0.7-0.5-1.4-0.6l-0.1-0.6l7.7-1.9l0.2,0.6c-0.2,0-0.3,0.1-0.4,0.2c-0.6,0.4-0.9,1.1-0.9,2.1
		c0,1.2,0.3,2.7,0.9,4.4s1.5,3.2,2.6,4.6c1,1.3,2.1,2.3,3.3,2.9c1.5,0.8,2.8,0.7,4-0.2c1-0.8,1.5-1.8,1.3-3
		c-0.1-1.2-0.8-2.7-2.1-4.4c-0.8-1-1.4-1.7-1.8-1.9c-0.4-0.3-0.9-0.3-1.4-0.1l-0.4-0.5l5.3-4l0.4,0.5c-0.4,0.5-0.5,1-0.4,1.4
		c0.1,0.5,0.6,1.2,1.3,2.2c1.2,1.6,2.4,2.5,3.6,3c1,0.4,2,0.2,2.8-0.4c0.9-0.7,1.3-1.6,1.1-2.8c-0.1-1.2-0.8-2.5-1.9-4
		c-1.6-2.1-3.5-3.6-5.7-4.5c-1.1-0.4-1.8-0.4-2.3-0.1c-0.2,0.2-0.4,0.4-0.6,0.7l-0.6-0.2l1.7-7.1l0.6,0.2c0.1,0.5,0.2,0.9,0.4,1.1
		c0.2,0.2,0.5,0.4,1,0.6c3.8,1.3,6.9,3.6,9.4,6.8c1.7,2.3,2.8,4.5,3,6.8c0.2,1.3,0,2.5-0.4,3.6c-0.5,1.2-1.2,2.2-2.3,3
		C885.6,220.8,883.5,221,881,220z"/>
	<path class="st19" d="M876.5,232.4l7.9,0.5l0,0.6c-0.3,0.1-0.6,0.2-0.8,0.4c-0.6,0.4-0.8,1.2-0.8,2.5c0,2.6,0.8,5.1,2.3,7.3
		c1.1,1.7,2.3,2.7,3.7,3.2c1.5,0.5,2.8,0.3,4.2-0.5c1.2-0.8,1.9-2,1.9-3.5s-0.5-3.1-1.6-4.7c-0.8-1.2-1.8-2.3-2.9-3.1
		c-1.1-0.8-1.9-1.1-2.4-0.8c-0.2,0.1-0.3,0.3-0.5,0.7l-0.6-0.2l2-9.7l0.6,0.1c0,0.1,0.1,0.2,0.1,0.2c0.4,0.5,0.9,0.6,1.5,0.1
		l4.8-3.2c0.4-0.2,0.6-0.5,0.7-0.8c0.1-0.3,0-0.7-0.1-1.1l0.5-0.4l12,17.9c0.2,0.3,0.5,0.5,0.7,0.6c0.3,0.1,0.6,0,1.1-0.1l0.4,0.5
		l-6,4l-0.4-0.5c0.3-0.4,0.5-0.7,0.5-1c0-0.3-0.1-0.6-0.3-0.9l-8.6-12.9l-4.9,3.3c2.1,1.2,4,3,5.6,5.4c2.1,3.1,3,6.1,2.8,8.9
		c-0.2,2.6-1.5,4.6-3.7,6.1c-1.7,1.1-3.6,1.7-5.6,1.5c-3.5-0.2-6.6-2.3-9.3-6.5c-1.8-2.7-2.8-5.3-3.2-7.8c-0.1-0.6-0.2-1.7-0.3-3.2
		c0-0.6-0.2-1.2-0.4-1.5c-0.1-0.2-0.5-0.4-1-0.7L876.5,232.4z"/>
	<path class="st19" d="M960.7,452.9l-1.6-14.2c-0.1-0.8-0.2-1.3-0.4-1.5c-0.2-0.2-0.5-0.4-1.1-0.4l-0.1-0.6l5.7-0.6l16.5,11.7
		c0.7,0.5,1.2,0.7,1.5,0.7c0.5-0.1,0.7-0.4,0.7-1.1l0.6-0.1l1.2,11.3l-0.6,0.1c-0.2-0.5-0.4-0.9-0.7-1.3c-0.3-0.4-0.6-0.6-1-0.5
		l-15.9,1.8l0.2,1.5c0,0.4,0.2,0.7,0.4,0.9c0.2,0.2,0.6,0.3,1,0.4l0.1,0.6l-7,0.8l-0.1-0.6c0.5-0.2,0.8-0.4,0.9-0.6s0.2-0.6,0.2-1
		l-0.2-1.5l-2.5,0.3c-0.4,0-0.7,0.2-0.9,0.4c-0.2,0.2-0.3,0.6-0.4,1l-0.6,0.1l-0.9-8.2l0.6-0.1c0.2,0.5,0.4,0.8,0.6,0.9
		c0.2,0.2,0.6,0.2,1,0.2L960.7,452.9z M965.2,452.5l11.8-1.3l-13-9.1L965.2,452.5z"/>
	<path class="st19" d="M985.6,476.4c0.2,3.6-0.8,6.6-3.1,9.1c-2.5,2.8-6,4.3-10.6,4.5c-1.4,0.1-2.9-0.1-4.4-0.4
		c-1.5-0.3-2.8-0.8-3.9-1.4c-2-1.1-3.5-2.6-4.6-4.6c-1-1.7-1.5-3.6-1.6-5.8c-0.2-3.6,0.9-6.6,3.1-9c1.1-1.2,2.3-2.1,3.7-2.8
		c2-1,4.3-1.6,6.7-1.7c3.2-0.2,6.1,0.5,8.5,1.8c1.9,1.1,3.4,2.6,4.6,4.6C984.9,472.3,985.4,474.2,985.6,476.4z M981,476.7
		c-0.1-2.1-1.1-3.7-3-4.9c-1.8-1.1-4-1.5-6.5-1.4c-2.6,0.1-4.7,0.8-6.4,2c-1.8,1.3-2.7,3.1-2.6,5.2c0.1,2.1,1.1,3.8,3,4.9
		c1.8,1.1,3.9,1.5,6.4,1.4c2.7-0.1,4.9-0.8,6.5-2C980.2,480.5,981,478.8,981,476.7z"/>
</g>
</svg>
