{
<!-- 
	fill:#FFD600;
	fill:#8EACC9;
	fill:#99CC00;
	fill:#FF8900;
	fill:#FF4D00;
	fill:#8FACCA;
 -->}

<svg className="morph" viewBox="0 0 69.46 159.24">

	<g id="org">
		<path className="manorg" d="M34.72,88.24c0.49,0.01,0.27,2.14,0.27,2.7c0.04,4.96,2,18.21,1.67,22.23c-0.69,8.48,0.83,10.45,1.16,15.46
		c0.45,6.86,2.08,10.42,2.51,16.08c0,0.09,0,0.33,0,0.36c-0.04,2.59-0.23,6.46-0.55,7.88c-0.67,2.94-0.59,3.48,1.18,3.67
		c0.94,0.1,3.69,0.45,5.12-0.23c1.04-0.49,0.93-1.59,0.85-2.62c-0.2-2.41-0.89-4.43-1.03-5.15c-0.39-2.05-0.48-4.49-0.48-4.49
		c0.61-8.71,1.95-10.86,3.02-22.85c0.95-10.59,0.25-11.7,1.45-22.29c0.5-4.39,0.82-7.96,1-10.32c0.4-4.21-0.07-8.52-0.94-15.32
		c-0.92-7.15-0.97-8.61-0.97-13.3c0-4.22,0.62-10.89,0.93-11.12c0.31-0.23,1.65,10.8,1.65,10.88c0.42,11.52,3.74,16.16,4.41,20.53
		c0.12,1.99-0.41,2.54-0.22,4.74c0.14,1.65-0.33,4.11,0.52,3.73c1.01-0.45,0.65-3.46,1.32-3.38c0.64,0.08,1.39,1.23,1.52,3.69
		c0.1,1.77-0.21,3.55,0.1,3.94c0.66,0.83,0.75-1.04,1.34-2.4c0.3-0.68,0.65-3.13,0.56-4.29c-0.13-1.68-0.67-3.26-1.62-5.96
		c-0.98-3.87,0.14-11.65,0.02-16.44c-0.12-4.84-0.97-6.92-0.92-7.39c0.78-7.96-1.39-18.52-2.67-22.22
		c-1.66-4.78-8.65-4.96-12.26-5.1c-2.57-0.1-4.6-3.16-4.94-4.55c-0.02-0.45-0.03-0.96-0.04-1.49c1.06-1.13,1.36-1.94,2.39-4.02
		c0.55-0.01,1-0.77,1.08-1.87c0.09-1.22,0.81-2.53,0.68-3.21c-0.07-0.34-0.28-0.43-0.48-0.43c0.58-5.91-0.79-9.09-3.4-10.22
		c-2.84-1.22-4.23-1.08-4.23-1.08s-1.39-0.13-4.23,1.08c-2.62,1.12-3.98,4.3-3.4,10.22c-0.2,0.01-0.41,0.1-0.48,0.43
		c-0.14,0.68,0.59,1.99,0.68,3.21c0.08,1.1,0.53,1.86,1.08,1.87c1.03,2.08,1.34,2.89,2.39,4.02c-0.01,0.53-0.02,1.04-0.04,1.49
		c-0.35,1.39-2.38,4.45-4.94,4.55c-3.62,0.13-10.6,0.32-12.26,5.1c-1.28,3.7-3.46,14.26-2.67,22.22c0.05,0.47-0.81,2.55-0.92,7.39
		c-0.11,4.79,1.01,12.57,0.02,16.44c-0.95,2.7-1.49,4.28-1.62,5.96c-0.09,1.15,0.27,3.6,0.56,4.29c0.59,1.36,0.67,3.23,1.34,2.4
		c0.31-0.38,0-2.16,0.1-3.94c0.13-2.46,0.88-3.61,1.52-3.69c0.67-0.08,0.31,2.93,1.32,3.38c0.86,0.38,0.38-2.08,0.52-3.73
		c0.19-2.21-0.35-2.75-0.22-4.74c0.67-4.38,3.99-9.01,4.41-20.53c0-0.08,1.35-11.11,1.65-10.88c0.31,0.23,0.93,6.9,0.93,11.12
		c0,4.69-0.05,6.15-0.97,13.3c-0.88,6.8-1.35,11.1-0.94,15.32c0.17,2.36,0.5,5.92,1,10.32c1.2,10.58,0.5,11.7,1.45,22.29
		c1.07,11.99,2.41,14.14,3.02,22.85c0,0-0.09,2.44-0.48,4.49c-0.14,0.72-0.83,2.73-1.03,5.15c-0.09,1.03-0.19,2.13,0.85,2.62
		c1.42,0.68,4.18,0.33,5.12,0.23c1.77-0.19,1.84-0.73,1.18-3.67c-0.32-1.42-0.51-5.29-0.55-7.88c0-0.03,0-0.27,0-0.36
		c0.43-5.66,2.06-9.22,2.51-16.08c0.33-5,1.85-6.98,1.16-15.46c-0.32-4.02,1.63-17.27,1.67-22.23
		C34.46,90.39,34.24,88.25,34.72,88.24z" />
		<defs>


			<path className="man1"
				d="M34.69,85.37c0.49,0.01,1,0.28,1,0.83c0.04,4.96,2.69,22.94,2.37,26.96c-0.69,8.48-0.62,10.46-0.29,15.46
		c0.45,6.86,1.2,10.21,1.63,15.87c0,0.09,0,0.33,0,0.36c-0.04,2.59-0.63,6.66-0.95,8.09c-0.67,2.94-0.59,3.48,1.18,3.67
		c0.94,0.1,3.19,0.45,4.61-0.23c1.04-0.49,0.93-1.59,0.85-2.62c-0.2-2.41-0.89-4.43-1.03-5.15c-0.39-2.05-0.48-4.49-0.48-4.49
		c0.61-8.71,1.58-11.96,2.65-23.95c0.95-10.59,0.08-10.64,1.28-21.22c0.5-4.39,0.3-7.79,0.48-10.16c0.4-4.21,0.65-9.11-0.23-15.91
		c-0.92-7.15-2.08-8.17-2.08-12.86c0-4.22,1.13-14.06,1.44-14.29c0.31-0.23,2.42,11.97,2.42,12.05c0.42,11.52,2.8,18.09,3.47,22.47
		c0.12,1.99-0.41,2.54-0.22,4.74c0.14,1.65-0.33,4.11,0.52,3.73c1.01-0.45,0.65-3.46,1.32-3.38c0.64,0.08,1.39,1.23,1.52,3.69
		c0.1,1.77-0.21,3.55,0.1,3.94c0.66,0.83,0.75-1.04,1.34-2.4c0.3-0.68,0.65-3.13,0.56-4.29c-0.13-1.68-0.67-3.26-1.62-5.96
		c-0.98-3.87,0.08-12.54-0.04-17.33c-0.12-4.84-1.43-6.88-1.44-7.35c-0.15-7.22-1.11-18.18-1.69-21.82
		c-0.77-4.84-7.59-3.98-11.16-4.56c-2.11-0.34-3.19-3.15-3.54-4.54c-0.02-0.45-0.03-0.96-0.04-1.49c1.06-1.13,1.36-1.94,2.39-4.02
		c0.55-0.01,1-0.77,1.08-1.87c0.09-1.22,0.81-2.53,0.68-3.21c-0.07-0.34-0.28-0.43-0.48-0.43c0.58-5.91-0.79-9.09-3.4-10.22
		c-2.84-1.22-4.2-1.08-4.2-1.08s-1.36-0.13-4.2,1.08c-2.62,1.12-3.98,4.3-3.4,10.22c-0.2,0.01-0.41,0.1-0.48,0.43
		c-0.14,0.68,0.59,1.99,0.68,3.21c0.08,1.1,0.53,1.86,1.08,1.87c1.03,2.08,1.34,2.89,2.39,4.02c-0.01,0.53-0.02,1.04-0.04,1.49
		c-0.35,1.39-1.43,4.2-3.54,4.54c-3.57,0.58-10.39-0.28-11.16,4.56c-0.58,3.64-1.54,14.6-1.69,21.82c-0.01,0.47-1.33,2.51-1.44,7.35
		c-0.11,4.79,0.95,13.46-0.04,17.33c-0.95,2.7-1.49,4.28-1.62,5.96c-0.09,1.15,0.27,3.6,0.56,4.29c0.59,1.36,0.67,3.23,1.34,2.4
		c0.31-0.38,0-2.16,0.1-3.94c0.13-2.46,0.88-3.61,1.52-3.69c0.67-0.08,0.31,2.93,1.32,3.38c0.86,0.38,0.38-2.08,0.52-3.73
		c0.19-2.21-0.35-2.75-0.22-4.74c0.67-4.38,3.05-10.95,3.47-22.47c0-0.08,2.11-12.28,2.42-12.05c0.31,0.23,1.44,10.07,1.44,14.29
		c0,4.69-1.16,5.71-2.08,12.86c-0.88,6.79-0.63,11.7-0.23,15.91c0.17,2.36-0.02,5.76,0.48,10.16c1.2,10.58,0.33,10.63,1.28,21.22
		c1.07,11.99,2.04,15.24,2.65,23.95c0,0-0.09,2.44-0.48,4.49c-0.14,0.72-0.83,2.73-1.03,5.15c-0.09,1.03-0.19,2.13,0.85,2.62
		c1.42,0.68,3.67,0.33,4.61,0.23c1.77-0.19,1.84-0.73,1.18-3.67c-0.32-1.42-0.9-5.5-0.95-8.09c0-0.03,0-0.27,0-0.36
		c0.43-5.66,1.18-9.01,1.63-15.87c0.33-5,0.4-6.98-0.29-15.46c-0.32-4.02,2.32-22,2.37-26.96C33.7,85.65,34.21,85.37,34.69,85.37z" />

			<path className="man2" d="M34.69,86.58c0.49,0.01,0.37,2.67,0.34,3.22c-0.33,7.33,3.4,19.67,3.03,23.36
		c-0.81,7.96-0.24,10.43,0.09,15.43c0.45,6.86,1.66,10.24,2.09,15.9c0,0.09,0,0.33,0,0.36c-0.04,2.59-0.63,6.66-0.95,8.09
		c-0.67,2.94-0.59,3.48,1.18,3.67c0.94,0.1,3.19,0.45,4.61-0.23c1.04-0.49,0.93-1.59,0.85-2.62c-0.2-2.41-0.89-4.43-1.03-5.15
		c-0.39-2.05-0.48-4.49-0.48-4.49c0.61-8.71,2.06-12.14,3.13-24.13c0.95-10.59-0.06-10.64,1.14-21.22c0.5-4.39,0.3-7.79,0.48-10.16
		c0.4-4.21-0.11-9.07-0.98-15.86c-0.92-7.15-1.31-8.45-1.31-13.13c0-4.22,1.56-11.38,1.86-11.61c0.31-0.23,1.55,9.72,1.55,9.8
		c0.42,11.52,3.24,18,3.91,22.38c0.12,1.99-0.41,2.54-0.22,4.74c0.14,1.65-0.33,4.11,0.52,3.73c1.01-0.45,0.65-3.46,1.32-3.38
		c0.64,0.08,1.39,1.23,1.52,3.69c0.1,1.77-0.21,3.55,0.1,3.94c0.66,0.83,0.75-1.04,1.34-2.4c0.3-0.68,0.65-3.13,0.56-4.29
		c-0.13-1.68-0.67-3.26-1.62-5.96c-0.98-3.87,0.38-12.36,0.26-17.15c-0.12-4.84-1.7-6.91-1.71-7.38c-0.15-7.22-0.77-19.12-1.6-22.71
		c-0.88-3.77-8.23-3.23-11.8-3.8c-2.11-0.34-3.58-3.09-3.92-4.48c-0.02-0.45-0.03-0.96-0.04-1.49c1.06-1.13,1.36-1.94,2.39-4.02
		c0.55-0.01,1-0.77,1.08-1.87c0.09-1.22,0.81-2.53,0.68-3.21c-0.07-0.34-0.28-0.43-0.48-0.43c0.58-5.91-1.07-9.1-3.69-10.22
		c-2.84-1.22-4.2-1.09-4.2-1.09s-1.36-0.14-4.2,1.08c-2.62,1.12-4.26,4.31-3.69,10.22c-0.2,0.01-0.41,0.1-0.48,0.43
		c-0.14,0.68,0.59,1.99,0.68,3.21c0.08,1.1,0.53,1.86,1.08,1.87c1.03,2.08,1.34,2.89,2.39,4.02c-0.01,0.53-0.02,1.04-0.04,1.49
		c-0.35,1.39-1.81,4.14-3.92,4.48c-3.57,0.58-10.93,0.03-11.8,3.8c-0.83,3.59-1.45,15.49-1.6,22.71c-0.01,0.47-1.59,2.54-1.71,7.38
		c-0.11,4.79,1.24,13.28,0.26,17.15c-0.95,2.7-1.49,4.28-1.62,5.96c-0.09,1.15,0.27,3.6,0.56,4.29c0.59,1.36,0.67,3.23,1.34,2.4
		c0.31-0.38,0-2.16,0.1-3.94c0.13-2.46,0.88-3.61,1.52-3.69c0.67-0.08,0.31,2.93,1.32,3.38c0.86,0.38,0.38-2.08,0.52-3.73
		c0.19-2.21-0.35-2.75-0.22-4.74c0.67-4.38,3.49-10.86,3.91-22.38c0-0.08,1.24-10.03,1.55-9.8c0.31,0.23,1.86,7.39,1.86,11.61
		c0,4.69-0.39,5.99-1.31,13.13c-0.88,6.79-1.39,11.65-0.98,15.86c0.17,2.36-0.02,5.76,0.48,10.16c1.2,10.58,0.19,10.63,1.14,21.22
		c1.07,11.99,2.52,15.42,3.13,24.13c0,0-0.09,2.44-0.48,4.49c-0.14,0.72-0.83,2.73-1.03,5.15c-0.09,1.03-0.19,2.13,0.85,2.62
		c1.42,0.68,3.67,0.33,4.61,0.23c1.77-0.19,1.84-0.73,1.18-3.67c-0.32-1.42-0.9-5.5-0.95-8.09c0-0.03,0-0.27,0-0.36
		c0.43-5.66,1.64-9.04,2.09-15.9c0.33-5,0.9-7.47,0.09-15.43c-0.38-3.69,3.36-16.03,3.03-23.36C34.33,89.24,34.21,86.59,34.69,86.58
		z" />

			<path className="man3" d="M34.72,88.24c0.49,0.01,0.27,2.14,0.27,2.7c0.04,4.96,2,18.21,1.67,22.23c-0.69,8.48,0.83,10.45,1.16,15.46
		c0.45,6.86,2.08,10.42,2.51,16.08c0,0.09,0,0.33,0,0.36c-0.04,2.59-0.23,6.46-0.55,7.88c-0.67,2.94-0.59,3.48,1.18,3.67
		c0.94,0.1,3.69,0.45,5.12-0.23c1.04-0.49,0.93-1.59,0.85-2.62c-0.2-2.41-0.89-4.43-1.03-5.15c-0.39-2.05-0.48-4.49-0.48-4.49
		c0.61-8.71,1.95-10.86,3.02-22.85c0.95-10.59,0.25-11.7,1.45-22.29c0.5-4.39,0.82-7.96,1-10.32c0.4-4.21-0.07-8.52-0.94-15.32
		c-0.92-7.15-0.97-8.61-0.97-13.3c0-4.22,0.62-10.89,0.93-11.12c0.31-0.23,1.65,10.8,1.65,10.88c0.42,11.52,3.74,16.16,4.41,20.53
		c0.12,1.99-0.41,2.54-0.22,4.74c0.14,1.65-0.33,4.11,0.52,3.73c1.01-0.45,0.65-3.46,1.32-3.38c0.64,0.08,1.39,1.23,1.52,3.69
		c0.1,1.77-0.21,3.55,0.1,3.94c0.66,0.83,0.75-1.04,1.34-2.4c0.3-0.68,0.65-3.13,0.56-4.29c-0.13-1.68-0.67-3.26-1.62-5.96
		c-0.98-3.87,0.14-11.65,0.02-16.44c-0.12-4.84-0.97-6.92-0.92-7.39c0.78-7.96-1.39-18.52-2.67-22.22
		c-1.66-4.78-8.65-4.96-12.26-5.1c-2.57-0.1-4.6-3.16-4.94-4.55c-0.02-0.45-0.03-0.96-0.04-1.49c1.06-1.13,1.36-1.94,2.39-4.02
		c0.55-0.01,1-0.77,1.08-1.87c0.09-1.22,0.81-2.53,0.68-3.21c-0.07-0.34-0.28-0.43-0.48-0.43c0.58-5.91-0.79-9.09-3.4-10.22
		c-2.84-1.22-4.23-1.08-4.23-1.08s-1.39-0.13-4.23,1.08c-2.62,1.12-3.98,4.3-3.4,10.22c-0.2,0.01-0.41,0.1-0.48,0.43
		c-0.14,0.68,0.59,1.99,0.68,3.21c0.08,1.1,0.53,1.86,1.08,1.87c1.03,2.08,1.34,2.89,2.39,4.02c-0.01,0.53-0.02,1.04-0.04,1.49
		c-0.35,1.39-2.38,4.45-4.94,4.55c-3.62,0.13-10.6,0.32-12.26,5.1c-1.28,3.7-3.46,14.26-2.67,22.22c0.05,0.47-0.81,2.55-0.92,7.39
		c-0.11,4.79,1.01,12.57,0.02,16.44c-0.95,2.7-1.49,4.28-1.62,5.96c-0.09,1.15,0.27,3.6,0.56,4.29c0.59,1.36,0.67,3.23,1.34,2.4
		c0.31-0.38,0-2.16,0.1-3.94c0.13-2.46,0.88-3.61,1.52-3.69c0.67-0.08,0.31,2.93,1.32,3.38c0.86,0.38,0.38-2.08,0.52-3.73
		c0.19-2.21-0.35-2.75-0.22-4.74c0.67-4.38,3.99-9.01,4.41-20.53c0-0.08,1.35-11.11,1.65-10.88c0.31,0.23,0.93,6.9,0.93,11.12
		c0,4.69-0.05,6.15-0.97,13.3c-0.88,6.8-1.35,11.1-0.94,15.32c0.17,2.36,0.5,5.92,1,10.32c1.2,10.58,0.5,11.7,1.45,22.29
		c1.07,11.99,2.41,14.14,3.02,22.85c0,0-0.09,2.44-0.48,4.49c-0.14,0.72-0.83,2.73-1.03,5.15c-0.09,1.03-0.19,2.13,0.85,2.62
		c1.42,0.68,4.18,0.33,5.12,0.23c1.77-0.19,1.84-0.73,1.18-3.67c-0.32-1.42-0.51-5.29-0.55-7.88c0-0.03,0-0.27,0-0.36
		c0.43-5.66,2.06-9.22,2.51-16.08c0.33-5,1.85-6.98,1.16-15.46c-0.32-4.02,1.63-17.27,1.67-22.23
		C34.46,90.39,34.24,88.25,34.72,88.24z" />

			<path className="man4" d="M34.73,85.87c0.22,0.18,0.42,6.89,0.41,7.45c-0.09,9.62,2.56,14.73,2.22,19.06
		c-0.67,8.48,0.15,11.24,0.48,16.24c0.45,6.86,2.49,10.49,2.92,16.15c0,0.09,0,0.33,0,0.36c-0.04,2.59,0.12,6.38-0.2,7.81
		c-0.67,2.94-0.59,3.48,1.18,3.67c0.94,0.1,3.67,0.15,5.09-0.53c1.04-0.49,0.93-1.59,0.85-2.62c-0.2-2.41-0.89-4.43-1.03-5.15
		c-0.39-2.05,0.15-4.94,0.15-4.94c0.61-8.71,3.85-11.45,4.93-23.44c0.95-10.59,0.12-10.71,1.32-21.29c0.5-4.39,0.3-7.79,0.48-10.16
		c0.4-4.21,0.72-7.95-0.16-14.75c-0.92-7.15-0.94-8.37-0.94-13.06c0-4.22-0.41-7.52-0.1-7.75c0.31-0.23,1.08,5.55,1.08,5.63
		c0.42,11.52,2.33,16.89,3.28,21.37c0.12,1.99-0.14,3.29,0.05,5.49c0.14,1.65-0.04,3.92,0.82,3.54c1.01-0.45,0.65-3.46,1.32-3.38
		c0.64,0.08,1.39,1.23,1.52,3.69c0.1,1.77-0.21,3.55,0.1,3.94c0.66,0.83,0.75-1.04,1.34-2.4c0.3-0.68,0.65-3.13,0.56-4.29
		c-0.13-1.68-0.67-3.26-1.62-5.96c-0.98-3.87,0.61-11.88,0.49-16.67c-0.12-4.84-1.04-7.1-1.05-7.57c-0.15-7.22-0.8-17.12-4.46-22.44
		c-2.19-3.19-7.72-3.27-11.99-4.93c-1.84-0.72-3.24-2.25-3.81-3.39c-0.24-0.49-0.72-1.16-0.6-2.17c1.06-1.13,1.3-2.14,2.33-4.22
		c0.55-0.01,1-0.77,1.08-1.87c0.09-1.22,0.81-2.53,0.68-3.21c-0.07-0.34-0.28-0.43-0.48-0.43c0.58-5.91-0.78-9.06-3.4-10.18
		c-2.84-1.22-4.85-1.08-4.85-1.08s-2.01-0.14-4.85,1.08c-2.62,1.12-3.98,4.27-3.4,10.18c-0.2,0.01-0.41,0.1-0.48,0.43
		c-0.14,0.68,0.59,1.99,0.68,3.21c0.08,1.1,0.53,1.86,1.08,1.87c1.03,2.08,1.27,3.09,2.33,4.22c0.12,1.02-0.36,1.68-0.6,2.17
		c-0.57,1.15-1.98,2.68-3.81,3.39c-4.27,1.66-9.8,1.75-11.99,4.93c-3.65,5.32-4.3,15.22-4.46,22.44c-0.01,0.47-0.94,2.73-1.05,7.57
		c-0.11,4.79,1.48,12.8,0.49,16.67c-0.95,2.7-1.49,4.28-1.62,5.96c-0.09,1.15,0.27,3.6,0.56,4.29c0.59,1.36,0.67,3.23,1.34,2.4
		c0.31-0.38,0-2.16,0.1-3.94c0.13-2.46,0.88-3.61,1.52-3.69c0.67-0.08,0.31,2.93,1.32,3.38c0.86,0.38,0.68-1.89,0.82-3.54
		c0.19-2.21-0.08-3.5,0.05-5.49c0.95-4.48,2.86-9.85,3.28-21.37c0-0.08,0.78-5.86,1.08-5.63c0.31,0.23-0.1,3.52-0.1,7.75
		c0,4.69-0.02,5.91-0.94,13.06c-0.88,6.79-0.56,10.54-0.16,14.75c0.17,2.36-0.02,5.76,0.48,10.16c1.2,10.58,0.37,10.7,1.32,21.29
		c1.07,11.99,4.32,14.73,4.93,23.44c0,0,0.54,2.89,0.15,4.94c-0.14,0.72-0.83,2.73-1.03,5.15c-0.09,1.03-0.19,2.13,0.85,2.62
		c1.42,0.68,4.15,0.63,5.09,0.53c1.77-0.19,1.84-0.73,1.18-3.67c-0.32-1.42-0.16-5.22-0.2-7.81c0-0.03,0-0.27,0-0.36
		c0.43-5.66,2.47-9.29,2.92-16.15c0.33-5,1.15-7.76,0.48-16.24c-0.34-4.33,2.31-9.45,2.22-19.06
		C34.31,92.76,34.52,86.06,34.73,85.87z" />

			<path className="man5" d="M34.67,98.5c0.21,0.05,0.31,2.35,0.45,3.27c0.62,4.31,2.33,8.76,2.15,12.79c-0.32,6.82,0.46,11.08,0.95,14.34
		c0.74,4.95,1.96,9.54,2.96,15.3c0.08,0.56,0.17,2.04,0.19,2.63c0.01,1.39-0.2,4.69-0.52,6.11c-0.67,2.94-0.59,3.48,1.18,3.67
		c0.94,0.1,4.54,0.45,5.97-0.23c1.04-0.49,0.93-1.59,0.85-2.62c-0.2-2.41-0.89-4.43-1.03-5.15c-0.39-2.05-0.03-4.98-0.03-4.98
		c0.61-8.71,4.91-11.37,5.29-23.4c0.13-4.04,0.76-7.2,2.21-17.12c0.64-4.38,0.84-9.58,1.01-11.94c0.4-4.21,0.94-4.83,0.06-11.62
		c-0.92-7.15-0.9-11.51-1.45-16.17c-0.51-4.23-0.95-8.53-0.64-8.76c0.31-0.23,1.2,9.5,1.21,9.58c1.71,10.23,2.42,11.54,3.09,15.92
		c-0.13,2.02-0.58,2.85-0.39,5.06c0.14,1.65,0.15,4.24,1.01,3.86c1.01-0.45,0.65-3.46,1.32-3.38c0.64,0.08,1.84,1.62,1.97,4.08
		c0.1,1.77,0.14,2.82,0.45,3.2c0.66,0.83,0.75-1.04,1.34-2.4c0.3-0.68,0.65-3.13,0.56-4.29c-0.13-1.68-1.02-3.67-1.27-5.95
		c0.09-4.91,0.53-11.98,1.07-16.74c0.57-4.99-0.19-10.86-0.88-14.46c-1.03-5.34-3.03-10.42-4.86-13.96
		c-2.25-4.35-10.66-5.38-14.25-5.87c-4.17-0.57-4.41-3.34-4.64-4.73c-0.1-0.43-0.17-0.9-0.18-1.43c1-1.07,1.45-2.11,1.92-4
		c0.55-0.01,1-0.77,1.08-1.87c0.09-1.22,0.81-2.53,0.68-3.21c-0.07-0.34-0.28-0.43-0.48-0.43c0.58-5.91-0.78-9.03-3.39-10.15
		c-2.84-1.22-4.93-1.08-4.94-1.08s-2.1-0.14-4.94,1.08c-2.62,1.12-3.97,4.24-3.39,10.15c-0.2,0.01-0.41,0.1-0.48,0.43
		c-0.14,0.68,0.59,1.99,0.68,3.21c0.08,1.1,0.53,1.86,1.08,1.87c0.47,1.9,0.92,2.94,1.92,4c-0.01,0.53-0.08,0.99-0.18,1.43
		c-0.23,1.39-0.47,4.16-4.64,4.73c-3.59,0.49-12,1.52-14.25,5.87c-1.83,3.54-3.83,8.62-4.86,13.96c-0.69,3.6-1.45,9.47-0.88,14.46
		c0.54,4.76,0.98,11.82,1.07,16.74c-0.25,2.27-1.14,4.27-1.27,5.95c-0.09,1.15,0.27,3.6,0.56,4.29c0.59,1.36,0.67,3.23,1.34,2.4
		c0.31-0.38,0.35-1.43,0.45-3.2c0.13-2.46,1.33-4.01,1.97-4.08c0.67-0.08,0.31,2.93,1.32,3.38c0.86,0.38,0.87-2.21,1.01-3.86
		c0.19-2.21-0.27-3.03-0.39-5.06c0.67-4.38,1.39-5.68,3.09-15.92c0.01-0.08,0.9-9.81,1.21-9.58c0.31,0.23-0.14,4.53-0.64,8.76
		c-0.56,4.66-0.53,9.02-1.45,16.17c-0.88,6.79-0.34,7.41,0.06,11.62c0.17,2.36,0.37,7.56,1.01,11.94
		c1.45,9.92,2.08,13.07,2.21,17.12c0.38,12.03,4.68,14.69,5.29,23.4c0,0,0.36,2.93-0.03,4.98c-0.14,0.72-0.83,2.73-1.03,5.15
		c-0.09,1.03-0.19,2.13,0.85,2.62c1.42,0.68,5.03,0.33,5.97,0.23c1.77-0.19,1.84-0.73,1.18-3.67c-0.32-1.42-0.54-4.72-0.52-6.11
		c0.01-0.59,0.11-2.07,0.19-2.63c1-5.77,2.22-10.36,2.96-15.3c0.49-3.25,1.26-7.52,0.95-14.34c-0.19-4.03,1.53-8.48,2.15-12.79
		C34.35,100.85,34.46,98.55,34.67,98.5z" />
		</defs>

		<path className="womanorg"
			d="M34.72,2.7c-0.72-0.19-4.81-1.01-7.26,1.86c-1.42,1.66-2.86,6.07-2.75,11.96c-0.3,3.59-0.68,5.82-1.66,7.09
		c0,0,3.13,0.5,7.44,0.53c-0.02,0.09-0.59,2.43-0.64,2.5c-0.76,1.04-1.99,2.24-3.97,2.56c-3.58,0.58-8.72,3.12-10.33,6.15
		c-1.73,3.26-2.18,19.3-2.3,19.76c-0.12,0.46-1.49,4.23-1.61,9.07c-0.11,4.79,0.55,9.77-0.45,13.62c-1.27,3.54-1.61,5.27-1.75,7.2
		c-0.09,1.15,0.37,3.49,0.66,4.17c0.59,1.36,0.82,3.33,1.48,2.5c0.31-0.38,0-2.17,0.1-3.94c0.13-2.46,0.88-3.61,1.52-3.69
		c0.67-0.08,0.31,2.93,1.32,3.38c0.86,0.38,0.38-2.08,0.52-3.73c0.19-2.3-0.69-2.48-0.69-4.52c0-0.34,0.48-1.59,0.58-2.04
		c0,0-0.01,0-0.01,0c1.01-5.56,5.44-13.9,4.29-19.99c-0.02-0.08,1.89-7.62,2.2-7.39c0.31,0.23,0.09,5.43,0.09,9.66
		c0,4.69-2.56,9.28-3.75,15.1c-1.07,5.24-0.41,7.45,0.15,13.22c0.18,2.36,0.53,5.68,1.23,10.05c1.64,10.17,1.96,10.75,2.46,22.23
		c0.53,12.15,3.01,14.44,3.62,23.71l0.17,4.74c0,0.11-0.92,2.88-1.12,5.29c-0.09,1.03-0.19,2.13,0.85,2.63
		c1.43,0.68,3.68,0.33,4.61,0.23c1.77-0.19,1.85-0.73,1.18-3.68c-0.42-1.84-0.61-8.18-0.5-9.77l-0.01,0
		c0.5-5.23,2.01-9.49,2.47-16.49c0.33-5.01,0.09-7.29,0-12.79c-0.07-3.79,1.23-24.51,1.83-25.79c0.6,1.27,1.9,21.99,1.83,25.79
		c-0.09,5.49-0.33,7.78,0,12.79c0.46,7,1.97,11.26,2.47,16.49l-0.01,0c0.11,1.6-0.09,7.94-0.5,9.77c-0.67,2.94-0.59,3.48,1.18,3.68
		c0.94,0.1,3.19,0.44,4.61-0.23c1.04-0.49,0.93-1.59,0.85-2.63c-0.2-2.41-1.12-5.18-1.12-5.29l0.17-4.74
		c0.61-9.27,3.09-11.56,3.62-23.71c0.5-11.48,0.82-12.06,2.46-22.23c0.7-4.37,1.06-7.69,1.23-10.05c0.55-5.77,1.22-7.98,0.15-13.22
		c-1.19-5.81-3.75-10.41-3.75-15.1c0-4.23-0.21-9.43,0.09-9.66c0.31-0.23,2.22,7.31,2.2,7.39c-1.15,6.09,3.28,14.43,4.29,19.99
		c0,0-0.01,0-0.01,0c0.09,0.45,0.58,1.7,0.58,2.04c0,2.04-0.88,2.22-0.69,4.52c0.14,1.65-0.33,4.11,0.52,3.73
		c1.01-0.45,0.65-3.46,1.32-3.38c0.64,0.08,1.39,1.23,1.52,3.69c0.1,1.78-0.21,3.56,0.1,3.94c0.67,0.83,0.89-1.14,1.48-2.5
		c0.3-0.68,0.75-3.02,0.66-4.17c-0.15-1.93-0.48-3.66-1.75-7.2c-1-3.85-0.34-8.83-0.45-13.62c-0.12-4.84-1.49-8.61-1.61-9.07
		c-0.12-0.46-0.56-16.49-2.3-19.76c-1.61-3.03-6.76-5.58-10.33-6.15c-1.98-0.32-3.21-1.52-3.97-2.56c-0.05-0.07-0.62-2.42-0.64-2.5
		c4.32-0.04,7.44-0.53,7.44-0.53c-0.98-1.27-1.36-3.5-1.66-7.09c0.11-5.89-1.32-10.3-2.75-11.96C39.53,1.69,35.44,2.51,34.72,2.7z" />
		
		<defs>
			<path className="woman1" d="M34.73,2.7c-0.72-0.19-4.81-1.01-7.27,1.86c-1.42,1.66-2.86,6.07-2.75,11.96c-0.3,3.59-0.68,5.82-1.66,7.09
		c0,0,3.52,0.17,7.83,0.21c-0.02,0.09-0.23,2.42-0.26,2.5c-0.41,1.25-1.3,2.18-3.28,2.5c-3.58,0.58-7.23,2.11-8.15,5.69
		c-0.92,3.58-2.58,19.88-2.69,20.34c-0.12,0.46-1.52,4.69-1.64,9.53c-0.11,4.79-0.5,10.23-1.5,14.07c-1.27,3.54-1.79,5.18-1.93,7.11
		c-0.09,1.15,0.27,3.61,0.56,4.29c0.59,1.36,0.68,3.23,1.34,2.4c0.31-0.38,0-2.17,0.1-3.94c0.13-2.46,0.88-3.61,1.52-3.69
		c0.67-0.08,0.31,2.93,1.32,3.38c0.86,0.38,0.38-2.08,0.52-3.73c0.19-2.3-0.56-2.37-0.38-4.57c0.03-0.34,0.07-0.79,0.16-1.24
		c0,0-0.01,0-0.01,0c1.01-5.56,5.23-15.49,4.08-21.58c-0.02-0.08,3.46-13.61,3.77-13.38c0.31,0.23,1.77,10.69,1.77,14.92
		c0,4.69-3.31,8.77-4.23,15.92c-0.68,5.3-1.25,7.49-0.7,13.25c0.18,2.36,0.53,5.68,1.23,10.05c1.64,10.17,2.06,11.01,2.55,22.49
		c0.53,12.15,1.81,14.76,2.42,24.03l-0.23,4.29c0,0.11-0.92,2.88-1.12,5.29c-0.09,1.03-0.19,2.13,0.85,2.63
		c1.43,0.68,3.68,0.33,4.61,0.23c1.77-0.19,1.85-0.73,1.18-3.68c-0.42-1.84-1.09-8.21-0.99-9.8l-0.01,0c0.5-5.23,1-9.19,1.46-16.19
		c0.33-5.01,0.22-7.43-0.04-14.73c-0.14-3.79,0.94-27.69,1.54-28.96c0.6,1.27,1.67,25.17,1.54,28.96c-0.26,7.3-0.37,9.73-0.04,14.73
		c0.46,7,0.96,10.96,1.46,16.19l-0.01,0c0.11,1.6-0.57,7.96-0.99,9.8c-0.67,2.94-0.59,3.48,1.18,3.68c0.94,0.1,3.19,0.44,4.61-0.23
		c1.04-0.49,0.93-1.59,0.85-2.63c-0.2-2.41-1.12-5.18-1.12-5.29l-0.23-4.29c0.61-9.27,1.9-11.88,2.42-24.03
		c0.5-11.48,0.91-12.32,2.55-22.49c0.7-4.37,1.06-7.69,1.23-10.05c0.55-5.77-0.01-7.95-0.7-13.25c-0.92-7.15-4.23-11.23-4.23-15.92
		c0-4.23,1.46-14.69,1.77-14.92c0.31-0.23,3.78,13.31,3.77,13.38c-1.15,6.09,3.07,16.02,4.08,21.58c0,0-0.01,0-0.01,0
		c0.09,0.45,0.13,0.9,0.16,1.24c0.18,2.2-0.58,2.27-0.38,4.57c0.14,1.65-0.33,4.11,0.52,3.73c1.01-0.45,0.65-3.46,1.32-3.38
		c0.64,0.08,1.39,1.23,1.52,3.69c0.1,1.78-0.21,3.56,0.1,3.94c0.67,0.83,0.75-1.04,1.34-2.4c0.3-0.68,0.65-3.14,0.56-4.29
		c-0.14-1.93-0.66-3.56-1.93-7.11c-1-3.85-1.39-9.29-1.5-14.07c-0.12-4.84-1.52-9.07-1.64-9.53c-0.12-0.46-1.77-16.77-2.69-20.34
		c-0.92-3.58-4.58-5.11-8.15-5.69c-1.98-0.32-2.87-1.25-3.28-2.5c-0.03-0.08-0.24-2.42-0.26-2.5c4.32-0.04,7.83-0.21,7.83-0.21
		c-0.98-1.27-1.36-3.5-1.66-7.09c0.11-5.89-1.32-10.3-2.75-11.96C39.55,1.69,35.45,2.51,34.73,2.7z" />

			<path className="woman2" d="M34.52,2.7c0.72-0.19,4.6-1.01,7.05,1.86c1.42,1.66,2.86,6.07,2.75,11.96c0.3,3.59,0.68,5.82,1.66,7.09
		c0,0-3.52,0.17-7.83,0.21c0.02,0.09,0.23,2.42,0.26,2.5c0.41,1.25,1.24,2.39,3.22,2.7c3.58,0.58,7.29,1.91,8.22,5.49
		c0.92,3.58,3.43,19.78,3.54,20.24c0.12,0.46,2,4.66,2.12,9.5c0.11,4.79-0.28,9.58,0.73,13.42c1.27,3.54,1.43,5.22,1.58,7.15
		c0.09,1.15-0.27,3.61-0.56,4.29c-0.59,1.36-0.68,3.23-1.34,2.4c-0.31-0.38,0-2.17-0.1-3.94c-0.13-2.46-0.88-3.61-1.52-3.69
		c-0.67-0.08-0.31,2.93-1.32,3.38c-0.86,0.38-0.38-2.08-0.52-3.73c-0.19-2.3,0.84-2.63,0.65-4.82c-0.03-0.34-0.07-0.79-0.16-1.24
		c0,0,0.01,0,0.01,0c-1.01-5.56-5.13-14.55-3.98-20.65c0.02-0.08-2.98-8.57-3.28-8.34c-0.31,0.23-0.32,6.63-0.32,10.86
		c0,4.69,2.8,8.38,3.73,15.54c0.68,5.3,0.99,7.24,0.44,13.01c-0.18,2.36-0.94,5.29-1.64,9.66c-1.64,10.17-1.71,11-2.21,22.48
		c-0.53,12.15-2.1,14.9-2.71,24.17l0.23,4.29c0,0.11,0.92,2.88,1.12,5.29c0.09,1.03,0.19,2.13-0.85,2.63
		c-1.43,0.68-3.68,0.33-4.61,0.23c-1.77-0.19-1.85-0.73-1.18-3.68c0.42-1.84,0.63-8.07,0.53-9.67l0.01,0
		c-0.5-5.23-1.67-9.58-2.14-16.57c-0.33-5.01-0.22-7.43,0.04-14.73c0.14-3.79-1-25.65-1.6-26.92c-0.6,1.27-1.73,23.13-1.6,26.92
		c0.26,7.3,0.37,9.73,0.04,14.73c-0.46,7-1.63,11.35-2.14,16.57l0.01,0c-0.11,1.6,0.11,7.83,0.53,9.67
		c0.67,2.94,0.59,3.48-1.18,3.68c-0.94,0.1-3.19,0.44-4.61-0.23c-1.04-0.49-0.93-1.59-0.85-2.63c0.2-2.41,1.12-5.18,1.12-5.29
		l0.23-4.29c-0.61-9.27-2.19-12.01-2.71-24.17c-0.5-11.48-0.57-12.31-2.21-22.48c-0.7-4.37-1.47-7.3-1.64-9.66
		c-0.55-5.77-0.24-7.71,0.44-13.01c0.92-7.15,3.73-10.85,3.73-15.54c0-4.23-0.01-10.63-0.32-10.86c-0.31-0.23-3.3,8.26-3.28,8.34
		c1.15,6.09-2.96,15.08-3.98,20.65c0,0,0.01,0,0.01,0c-0.09,0.45-0.13,0.9-0.16,1.24c-0.18,2.2,0.85,2.53,0.65,4.82
		c-0.14,1.65,0.33,4.11-0.52,3.73c-1.01-0.45-0.65-3.46-1.32-3.38c-0.64,0.08-1.39,1.23-1.52,3.69c-0.1,1.78,0.21,3.56-0.1,3.94
		c-0.66,0.83-0.75-1.04-1.34-2.4c-0.3-0.68-0.65-3.14-0.56-4.29c0.15-1.93,0.31-3.61,1.58-7.15c1-3.85,0.61-8.63,0.73-13.42
		c0.12-4.84,2-9.04,2.12-9.5c0.12-0.46,2.62-16.66,3.54-20.24c0.92-3.58,4.64-4.91,8.22-5.49c1.98-0.32,2.81-1.45,3.22-2.7
		c0.03-0.08,0.24-2.42,0.26-2.5c-4.32-0.04-7.83-0.21-7.83-0.21c0.98-1.27,1.36-3.5,1.66-7.09c-0.11-5.89,1.32-10.3,2.75-11.96
		C29.92,1.69,33.8,2.51,34.52,2.7z" />

			<path className="woman3"
				d="M34.72,2.7c-0.72-0.19-4.81-1.01-7.26,1.86c-1.42,1.66-2.86,6.07-2.75,11.96c-0.3,3.59-0.68,5.82-1.66,7.09
		c0,0,3.13,0.5,7.44,0.53c-0.02,0.09-0.59,2.43-0.64,2.5c-0.76,1.04-1.99,2.24-3.97,2.56c-3.58,0.58-8.72,3.12-10.33,6.15
		c-1.73,3.26-2.18,19.3-2.3,19.76c-0.12,0.46-1.49,4.23-1.61,9.07c-0.11,4.79,0.55,9.77-0.45,13.62c-1.27,3.54-1.61,5.27-1.75,7.2
		c-0.09,1.15,0.37,3.49,0.66,4.17c0.59,1.36,0.82,3.33,1.48,2.5c0.31-0.38,0-2.17,0.1-3.94c0.13-2.46,0.88-3.61,1.52-3.69
		c0.67-0.08,0.31,2.93,1.32,3.38c0.86,0.38,0.38-2.08,0.52-3.73c0.19-2.3-0.69-2.48-0.69-4.52c0-0.34,0.48-1.59,0.58-2.04
		c0,0-0.01,0-0.01,0c1.01-5.56,5.44-13.9,4.29-19.99c-0.02-0.08,1.89-7.62,2.2-7.39c0.31,0.23,0.09,5.43,0.09,9.66
		c0,4.69-2.56,9.28-3.75,15.1c-1.07,5.24-0.41,7.45,0.15,13.22c0.18,2.36,0.53,5.68,1.23,10.05c1.64,10.17,1.96,10.75,2.46,22.23
		c0.53,12.15,3.01,14.44,3.62,23.71l0.17,4.74c0,0.11-0.92,2.88-1.12,5.29c-0.09,1.03-0.19,2.13,0.85,2.63
		c1.43,0.68,3.68,0.33,4.61,0.23c1.77-0.19,1.85-0.73,1.18-3.68c-0.42-1.84-0.61-8.18-0.5-9.77l-0.01,0
		c0.5-5.23,2.01-9.49,2.47-16.49c0.33-5.01,0.09-7.29,0-12.79c-0.07-3.79,1.23-24.51,1.83-25.79c0.6,1.27,1.9,21.99,1.83,25.79
		c-0.09,5.49-0.33,7.78,0,12.79c0.46,7,1.97,11.26,2.47,16.49l-0.01,0c0.11,1.6-0.09,7.94-0.5,9.77c-0.67,2.94-0.59,3.48,1.18,3.68
		c0.94,0.1,3.19,0.44,4.61-0.23c1.04-0.49,0.93-1.59,0.85-2.63c-0.2-2.41-1.12-5.18-1.12-5.29l0.17-4.74
		c0.61-9.27,3.09-11.56,3.62-23.71c0.5-11.48,0.82-12.06,2.46-22.23c0.7-4.37,1.06-7.69,1.23-10.05c0.55-5.77,1.22-7.98,0.15-13.22
		c-1.19-5.81-3.75-10.41-3.75-15.1c0-4.23-0.21-9.43,0.09-9.66c0.31-0.23,2.22,7.31,2.2,7.39c-1.15,6.09,3.28,14.43,4.29,19.99
		c0,0-0.01,0-0.01,0c0.09,0.45,0.58,1.7,0.58,2.04c0,2.04-0.88,2.22-0.69,4.52c0.14,1.65-0.33,4.11,0.52,3.73
		c1.01-0.45,0.65-3.46,1.32-3.38c0.64,0.08,1.39,1.23,1.52,3.69c0.1,1.78-0.21,3.56,0.1,3.94c0.67,0.83,0.89-1.14,1.48-2.5
		c0.3-0.68,0.75-3.02,0.66-4.17c-0.15-1.93-0.48-3.66-1.75-7.2c-1-3.85-0.34-8.83-0.45-13.62c-0.12-4.84-1.49-8.61-1.61-9.07
		c-0.12-0.46-0.56-16.49-2.3-19.76c-1.61-3.03-6.76-5.58-10.33-6.15c-1.98-0.32-3.21-1.52-3.97-2.56c-0.05-0.07-0.62-2.42-0.64-2.5
		c4.32-0.04,7.44-0.53,7.44-0.53c-0.98-1.27-1.36-3.5-1.66-7.09c0.11-5.89-1.32-10.3-2.75-11.96C39.53,1.69,35.44,2.51,34.72,2.7z" />

			<path className="woman4" d="M34.72,2.7c-0.72-0.19-4.8-1.01-7.25,1.86c-1.42,1.66-2.86,6.07-2.75,11.96c-0.3,3.59-0.68,5.82-1.66,7.09
		c0,0,3.13,0.4,7.44,0.44c-0.02,0.09-0.33,2.13-0.35,2.22c-0.41,1.25-1.4,2.11-3.36,2.65c-4.59,1.28-10.85,3.41-12.74,7.58
		c-1.53,3.36-2.7,17.76-2.81,18.22c-0.12,0.46-1.52,4.69-1.64,9.53c-0.11,4.79-0.19,9.66,0,13.45c-1.27,3.54-1.19,5.31-1.33,7.24
		c-0.09,1.15,0.27,3.61,0.56,4.29c0.59,1.36,0.68,3.23,1.34,2.4c0.31-0.38,0-2.17,0.1-3.94c0.13-2.46,0.88-3.61,1.52-3.69
		c0.67-0.08,0.31,2.93,1.32,3.38c0.86,0.38,0.38-2.08,0.52-3.73c0.19-2.3-0.33-2.71-0.15-4.91c0.03-0.34,0.07-0.79,0.16-1.24
		c0,0-0.01,0-0.01,0c1.01-5.56,4.21-7.19,4.4-13.73c0-0.08,1.3-11.5,1.61-11.27c0.31,0.23,0.7,4.16,0,8.34
		c-0.66,3.98-1.52,5.4-3.13,11.37c-1.39,5.16-1.12,8.72-0.57,14.49c0.18,2.36,0.53,5.68,1.23,10.05
		c1.64,10.17,2.63,12.39,3.13,23.87c0.53,12.15,2.97,14.34,3.58,23.6l0.44,4.24c0,0.11-0.92,2.88-1.12,5.29
		c-0.09,1.03-0.19,2.13,0.85,2.63c1.43,0.68,3.68,0.33,4.61,0.23c1.77-0.19,1.85-0.73,1.18-3.68c-0.42-1.84-0.16-7.99-0.06-9.59
		l-0.01,0c0.5-5.23,1.91-7.21,2.37-14.21c0.33-5.01,0.83-7.67,0.57-14.97c-0.14-3.79,1.41-21.89,2.01-23.16
		c0.6,1.27,2.15,19.37,2.01,23.16c-0.26,7.3,0.24,9.96,0.57,14.97c0.46,7,1.87,8.98,2.37,14.21l-0.01,0
		c0.11,1.6,0.36,7.75-0.06,9.59c-0.67,2.94-0.59,3.48,1.18,3.68c0.94,0.1,3.19,0.44,4.61-0.23c1.04-0.49,0.93-1.59,0.85-2.63
		c-0.2-2.41-1.12-5.18-1.12-5.29l0.44-4.24c0.61-9.27,3.05-11.45,3.58-23.6c0.5-11.48,1.49-13.7,3.13-23.87
		c0.7-4.37,1.06-7.69,1.23-10.05c0.55-5.77,0.82-9.33-0.57-14.49c-1.61-5.97-2.46-7.39-3.13-11.37c-0.7-4.17-0.31-8.11,0-8.34
		c0.31-0.23,1.61,11.2,1.61,11.27c0.19,6.54,3.38,8.17,4.4,13.73c0,0-0.01,0-0.01,0c0.09,0.45,0.13,0.9,0.16,1.24
		c0.18,2.2-0.35,2.61-0.15,4.91c0.14,1.65-0.34,4.11,0.52,3.73c1.01-0.45,0.65-3.46,1.32-3.38c0.64,0.08,1.39,1.23,1.52,3.69
		c0.1,1.78-0.21,3.56,0.1,3.94c0.66,0.83,0.75-1.04,1.34-2.4c0.3-0.68,0.65-3.14,0.56-4.29c-0.15-1.93-0.07-3.69-1.33-7.24
		c0.19-3.79,0.11-8.66,0-13.45c-0.12-4.84-1.52-9.07-1.64-9.53c-0.12-0.46-1.29-14.86-2.81-18.22c-1.89-4.17-8.15-6.3-12.74-7.58
		c-1.96-0.55-2.95-1.4-3.36-2.65c-0.03-0.08-0.33-2.13-0.35-2.22c4.32-0.04,7.44-0.44,7.44-0.44c-0.98-1.27-1.36-3.5-1.66-7.09
		c0.11-5.89-1.32-10.3-2.75-11.96C39.52,1.69,35.44,2.51,34.72,2.7z" />

			<path className="woman5" d="M34.72,94.38c0.5,1.26,1.35,13.07,2.01,17.62c1,6.86,0.14,9.49,0.47,14.49c0.46,7,1.4,9.18,1.91,14.4l-0.01,0
		c0.11,1.6,1.6,9.93,1.19,11.77c-0.67,2.94-0.02,3.86,1.75,4.05c0.94,0.1,2.64,0.35,4.06-0.33c1.04-0.49,1.89-2.3,1.81-3.34
		c-0.2-2.41-1.12-5.18-1.12-5.29l0.55-4.58c1.89-9.28,3.83-9.35,4.36-21.51c0.5-11.48,3.1-12.09,4.74-22.26
		c0.7-4.37,1.06-7.69,1.23-10.05c0.55-5.77,0.4-5.11-0.29-10.41c-0.92-7.15-2.08-8.38-2.08-13.07c0-4.23-0.88-9.24-0.57-9.47
		c0.31-0.23,1.34,5.67,1.33,5.75C54.9,68.23,57.98,72.2,59,77.76c0,0-0.01,0-0.01,0c0.09,0.45,0.13,0.9,0.16,1.24
		c0.18,2.2-0.51,2.31-0.32,4.61c0.14,1.65-0.27,4.56,0.59,4.18c1.01-0.45,1.08-3.38,1.74-3.3c0.64,0.08,1.25,0.63,1.39,3.09
		c0.1,1.78-0.72,4.12-0.41,4.51c0.67,0.83,1.47-1.7,2.06-3.06c0.3-0.68,1.02-3.08,0.93-4.23c-0.14-1.93-0.31-2.01-1.58-5.56
		c0.63-4.23,1.95-11.82,1.83-16.61c-0.12-4.84-1.94-10.34-2.05-10.8c-0.12-0.46-5.18-14.09-7.55-16.92
		c-2.28-2.72-10.14-5.52-13.72-6.1c-1.98-0.32-2.87-1.25-3.28-2.5c-0.03-0.08-0.24-2.42-0.26-2.5c4.32-0.04,7.83-0.21,7.83-0.21
		c-0.98-1.27-1.36-3.5-1.66-7.09c0.11-5.89-1.32-10.3-2.75-11.96c-2.45-2.87-6.53-2.05-7.25-1.86c-0.72-0.19-4.8-1.01-7.25,1.86
		c-1.42,1.66-2.86,6.07-2.75,11.96c-0.3,3.59-0.68,5.82-1.66,7.09c0,0,3.52,0.17,7.83,0.21c-0.02,0.09-0.23,2.42-0.26,2.5
		c-0.41,1.25-1.3,2.18-3.28,2.5c-3.58,0.58-11.44,3.38-13.72,6.1c-2.37,2.83-7.43,16.46-7.55,16.92c-0.12,0.46-1.94,5.96-2.05,10.8
		c-0.11,4.79,1.2,12.38,1.83,16.61c-1.27,3.54-1.43,3.63-1.58,5.56c-0.09,1.15,0.64,3.55,0.93,4.23c0.59,1.36,1.4,3.89,2.06,3.06
		c0.31-0.38-0.51-2.73-0.41-4.51c0.13-2.46,0.75-3.02,1.39-3.09c0.67-0.08,0.74,2.85,1.74,3.3c0.86,0.38,0.45-2.53,0.59-4.18
		c0.19-2.3-0.5-2.41-0.32-4.61c0.03-0.34,0.07-0.79,0.16-1.24c0,0-0.01,0-0.01,0c1.01-5.56,4.09-9.53,2.94-15.62
		c-0.02-0.08,1.02-5.98,1.33-5.75c0.31,0.23-0.57,5.24-0.57,9.47c0,4.69-1.16,5.92-2.08,13.07c-0.68,5.3-0.84,4.65-0.29,10.41
		c0.18,2.36,0.53,5.68,1.23,10.05c1.64,10.17,4.24,10.78,4.74,22.26c0.53,12.15,2.46,12.22,4.36,21.51l0.55,4.58
		c0,0.11-0.92,2.88-1.12,5.29c-0.09,1.03,0.77,2.85,1.81,3.34c1.43,0.68,3.12,0.43,4.06,0.33c1.77-0.19,2.41-1.11,1.75-4.05
		c-0.42-1.84,1.08-10.17,1.19-11.77l-0.01,0c0.5-5.23,1.44-7.41,1.91-14.4c0.33-5.01-0.53-7.64,0.47-14.49
		C33.37,107.45,34.22,95.64,34.72,94.38z" />
		</defs>
</svg>