<?xml version="1.0" encoding="utf-8"?>
<!-- Generator: Adobe Illustrator 27.2.0, SVG Export Plug-In . SVG Version: 6.00 Build 0)  -->
<svg version="1.1" xmlns="http://www.w3.org/2000/svg" xmlns:xlink="http://www.w3.org/1999/xlink" x="0px" y="0px"
	 viewBox="0 0 94.69 441.74" style="enable-background:new 0 0 94.69 441.74;" xml:space="preserve">
<style type="text/css">
	.st0{fill:none;}
</style>
<g id="Layer_1">
	<path class="st0" d="M25.43,21.43c0,0,11.25,0,25,0s25,11.25,25,25s-11.25,25-25,25s-25,11.25-25,25s11.25,25,25,25s25,11.25,25,25
		s-11.25,25-25,25s-25,11.25-25,25s11.25,25,25,25s25,11.25,25,25c0,13.75-11.25,25-25,25s-25,11.25-25,25s11.25,25,25,25
		s25,11.25,25,25s-11.25,25-25,25s-25,11.25-25,25s11.25,25,25,25s25,0,25,0"/>
</g>
<g id="Layer_2">
	<circle class="st0" cx="0" cy="0" r="13.64"/>
</g>
</svg>
