<!-- <svg viewBox="0 0 100 450">
  <path class="curve" d="M25 25h25.47c14.01 0 25.47 11.25 25.47 25s-11.25 25-25 25-25 11.25-25 25 11.25 25 25 25 25 11.25 25 25-11.25 25-25 25-25 11.25-25 25 11.25 25 25 25 25 11.25 25 25-11.25 25-25 25-25 11.25-25 25 11.25 25 25 25 25 11.25 25 25-11.25 25-25 25-25 11.25-25 25 11.25 25 25 25h25" />
  <path class="circle" d="M2.35-14.82C1.71-14.92.65-15 0-15s-1.71.08-2.35.18-1.67.35-2.29.55c-.62.2-1.6.61-2.17.9s-1.48.85-2.01 1.23c-.53.38-1.33 1.07-1.79 1.53s-1.15 1.26-1.53 1.79c-.38.53-.94 1.43-1.23 2.01s-.7 1.56-.9 2.17c-.2.62-.45 1.65-.55 2.29S-15-.65-15 0s.08 1.71.18 2.35.35 1.67.55 2.29c.2.62.61 1.6.9 2.17s.85 1.48 1.23 2.01c.38.53 1.07 1.33 1.53 1.79s1.26 1.15 1.79 1.53c.53.38 1.43.94 2.01 1.23s1.56.7 2.17.9c.62.2 1.65.45 2.29.55S-.65 15 0 15s1.71-.08 2.35-.18 1.67-.35 2.29-.55c.62-.2 1.6-.61 2.17-.9s1.48-.85 2.01-1.23c.53-.38 1.33-1.07 1.79-1.53s1.15-1.26 1.53-1.79c.38-.53.94-1.43 1.23-2.01s.7-1.56.9-2.17c.2-.62.45-1.65.55-2.29S15 .65 15 0s-.08-1.71-.18-2.35-.35-1.67-.55-2.29c-.2-.62-.61-1.6-.9-2.17s-.85-1.48-1.23-2.01c-.38-.53-1.07-1.33-1.53-1.79s-1.26-1.15-1.79-1.53c-.53-.38-1.43-.94-2.01-1.23s-1.56-.7-2.17-.9c-.62-.2-1.65-.44-2.29-.55z"/>
  <path class="badge" d="m0-15.45 3.02-3.63 1.76 4.38 3.99-2.51.31 4.71 4.58-1.16-1.16 4.58 4.71.31-2.51 3.99 4.38 1.76L15.45 0l3.63 3.02-4.38 1.76 2.51 3.99-4.71.31 1.16 4.58-4.58-1.16-.31 4.71-3.99-2.51-1.76 4.38L0 15.45l-3.02 3.63-1.76-4.38-3.99 2.51-.31-4.71-4.58 1.16 1.16-4.58-4.71-.31 2.51-3.99-4.38-1.76L-15.45 0l-3.63-3.02 4.38-1.76-2.51-3.99 4.71-.31-1.16-4.58 4.58 1.16.31-4.71 3.99 2.51 1.76-4.38z"/>
</svg> -->

<svg viewBox="0 0 53 775" preserveAspectRatio="none slice">
	<path class="path" d="M51.5 0v275s0 25-25 25-25-25-25-25 0-25 25-25 25 25 25 50v75s0 25-25 25-25-25-25-25 0-25 25-25 25 25 25 50v75s0 25-25 25-25-25-25-25 0-25 25-25 25 25 25 50v275"/>
	<image class="star" href="../section1/star.svg"/>
</svg>