<?xml version="1.0" encoding="UTF-8"?>
<svg id="Layer_1" data-name="Layer 1" xmlns="http://www.w3.org/2000/svg" viewBox="0 0 53 775">
  <defs>
    <style>
      .cls-1 {
        fill: none;
        stroke: #000;
        stroke-miterlimit: 10;
        stroke-width: 3px;
      }
    </style>
  </defs>
  <path class="cls-1" d="m51.5,0v275s0,25-25,25-25-25-25-25c0,0,0-25,25-25s25,25,25,50v75s0,25-25,25-25-25-25-25c0,0,0-25,25-25s25,25,25,50v75s0,25-25,25-25-25-25-25c0,0,0-25,25-25s25,25,25,50v275"/>
</svg>