<?xml version="1.0" encoding="utf-8"?>
<!-- Generator: Adobe Illustrator 27.2.0, SVG Export Plug-In . SVG Version: 6.00 Build 0)  -->
<svg version="1.1" id="Layer_1" xmlns="http://www.w3.org/2000/svg" xmlns:xlink="http://www.w3.org/1999/xlink" x="0px" y="0px"
	 viewBox="0 0 250 825" style="enable-background:new 0 0 250 825;" xml:space="preserve">
<style type="text/css">
	.st0{fill:none;stroke:#000000;stroke-width:3;stroke-miterlimit:10;}
</style>
<path class="st0" d="M150,25v275c0,0,0,25-25,25s-25-25-25-25s0-25,25-25s25,25,25,50s0,75,0,75s0,25-25,25s-25-25-25-25s0-25,25-25
	s25,25,25,50s0,75,0,75s0,25-25,25s-25-25-25-25s0-25,25-25s25,25,25,50s0,75,0,75v100v100"/>
</svg>
