<svg xmlns="http://www.w3.org/2000/svg" xmlns:xlink="http://www.w3.org/1999/xlink" viewBox="0 0 1000 500">
	<style type="text/css">
		.st0 {
			fill: #8EACC9;
		}

		.st1 {
			fill: #97C93C;
		}

		.st2 {
			fill: #F5881F;
		}

		.st3 {
			fill: #EF5023;
		}

		.st4 {
			fill: #FDD500;
		}

		.st5 {
			fill: #FAB073;
		}

		.st6 {
			fill: #CADD6D;
		}

		.st7 {
			fill: #F7DC6A;
		}

		.st8 {
			fill: #F48A73;
		}

		.st9 {
			fill: #AE2424;
		}

		.st10 {
			fill: #B3D4EF;
		}

		.st11 {
			fill: #FFFFFF;
		}

		.st12 {
			fill: #FFFFFF;
			fill-opacity: 0.5;
		}

		.st13 {
			fill: #0086FF;
		}

		.st14 {
			fill: none;
			stroke: #FFFFFF;
			stroke-width: 2.9198;
			stroke-miterlimit: 10;
		}

		.st15 {
			fill: none;
			stroke: #0086FF;
			stroke-width: 2.9198;
			stroke-miterlimit: 10;
		}

		.st16 {
			fill: none;
			stroke: #FFFFFF;
			stroke-width: 3.0155;
			stroke-miterlimit: 10;
		}

		.st17 {
			fill: none;
			stroke: #FF0062;
			stroke-width: 3.0155;
			stroke-miterlimit: 10;
		}

		.st18 {
			fill: #FF0062;
		}
	</style>
	<path class="st0" d="M95.47,206.09C35.42,288.59,0,390.16,0,500h100c0-87.87,28.34-169.13,76.37-235.13L95.47,206.09z" />
	<path class="st1" d="M376.36,119.47l-30.91-95.13C244.06,57.26,156.88,121.7,95.47,206.09l80.91,58.78
	C225.51,197.36,295.25,145.81,376.36,119.47z" />
	<path class="st2" d="M823.63,264.87l80.91-58.78C843.12,121.7,755.94,57.26,654.55,24.34l-30.91,95.13
	C704.75,145.81,774.49,197.36,823.63,264.87z" />
	<path class="st3"
		d="M900,500h100c0-109.84-35.42-211.41-95.47-293.91l-80.91,58.78C871.66,330.87,900,412.13,900,500z" />
	<path class="st4" d="M500,100c43.15,0,84.7,6.83,123.64,19.47l30.91-95.13C605.88,8.54,553.94,0,500,0S394.12,8.54,345.45,24.34
	l30.91,95.13C415.3,106.83,456.85,100,500,100z" />
	<path class="st5" d="M623.64,119.47L500,500l323.63-235.13C774.49,197.36,704.75,145.81,623.64,119.47z" />
	<path class="st6" d="M176.37,264.87L500,500L376.36,119.47C295.25,145.81,225.51,197.36,176.37,264.87z" />
	<path class="st7"
		d="M500,100c-43.15,0-84.7,6.83-123.64,19.47L500,500l123.64-380.53C584.7,106.83,543.15,100,500,100z" />
	<path class="st8" d="M823.63,264.87L500,500l0,0h400C900,412.13,871.66,330.87,823.63,264.87z" />
	<polygon class="st9" points="500,500 500,500 500,500 " />
	<polygon class="st9" points="500,500 500,500 500,500 " />
	<path class="st10" d="M176.37,264.87C128.34,330.87,100,412.13,100,500h400l0,0L176.37,264.87z" />
	<polygon class="st9" points="500,500 500,500 500,500 " />
	<g>
		<path class="st11" d="M200.65,436.49c-0.57-0.33-1.02-0.78-1.35-1.35c-0.33-0.57-0.5-1.18-0.5-1.85v-14.3h3.88v14.1h10.2v-14.1
		h3.93v14.3c0,0.67-0.17,1.28-0.51,1.85c-0.34,0.57-0.79,1.02-1.35,1.35c-0.56,0.33-1.17,0.5-1.84,0.5h-10.6
		C201.83,436.99,201.22,436.83,200.65,436.49z" />
		<path class="st11" d="M219.55,436.99v-18h4l10.08,12v-12h3.92v18h-4l-10.12-12.05v12.05H219.55z" />
		<path class="st11" d="M240.4,436.99v-18h14.27c0.68,0,1.3,0.17,1.86,0.5c0.56,0.33,1.01,0.78,1.35,1.34
		c0.34,0.56,0.51,1.18,0.51,1.86v10.6c0,0.67-0.17,1.28-0.51,1.85c-0.34,0.57-0.79,1.02-1.35,1.35c-0.56,0.33-1.18,0.5-1.86,0.5
		H240.4z M254.48,433.09v-10.2h-10.23v10.2H254.48z" />
		<path class="st11" d="M261.25,436.99v-18h16.62v3.9h-12.7v3.15h10.23v3.9h-10.23v3.15h12.7v3.9H261.25z" />
		<path class="st11"
			d="M280.35,436.99v-17.98h14.27c0.68,0,1.3,0.17,1.86,0.5c0.56,0.33,1.01,0.78,1.35,1.35
		c0.34,0.57,0.51,1.18,0.51,1.85v4.65c0,0.67-0.17,1.28-0.51,1.85c-0.34,0.57-0.79,1.02-1.35,1.35c-0.56,0.33-1.18,0.5-1.86,0.5
		l-10.4,0.02v5.9H280.35z M294.43,427.17v-4.27h-10.2v4.27H294.43z M294.33,436.99l-5.23-6.23h5.08l4.15,4.9v1.33H294.33z" />
		<path class="st11" d="M198.45,466.99l-6.55-18h4.12l3.92,10.73l3.93-10.73h3.57l3.95,10.73l3.92-10.73h4.1l-6.55,18h-2.98
		l-4.25-11.58l-4.23,11.58H198.45z" />
		<path class="st11" d="M221.95,466.99v-18h16.62v3.9h-12.7v3.15h10.23v3.9h-10.23v3.15h12.7v3.9H221.95z" />
		<path class="st11" d="M240.43,466.99v-18h3.83v18H240.43z" />
		<path class="st11" d="M250.1,466.99c-0.67,0-1.28-0.17-1.85-0.5c-0.57-0.33-1.02-0.78-1.35-1.35c-0.33-0.57-0.5-1.18-0.5-1.85
		v-10.6c0-0.68,0.17-1.3,0.5-1.86c0.33-0.56,0.78-1,1.35-1.34c0.57-0.33,1.18-0.5,1.85-0.5h10.57c0.68,0,1.3,0.17,1.86,0.5
		c0.56,0.33,1.01,0.78,1.35,1.34c0.34,0.56,0.51,1.18,0.51,1.86v1.7h-3.92v-1.5h-10.2v10.2h10.2v-2.7h-3.9v-3.9h7.82v6.8
		c0,0.67-0.17,1.28-0.51,1.85c-0.34,0.57-0.79,1.02-1.35,1.35c-0.56,0.33-1.18,0.5-1.86,0.5H250.1z" />
		<path class="st11" d="M267.17,466.99v-18h3.88v7.05h10.62v-7.05h3.88v18h-3.88v-7.05h-10.62v7.05H267.17z" />
		<path class="st11" d="M294.57,466.99v-14.1h-7.05v-3.9h18v3.9h-7.05v14.1H294.57z" />
	</g>
	<g>
		<path class="st11" d="M667.46,437.01v-18h16.62v3.9h-12.7v3.15h10.22v3.9h-10.22v3.15h12.7v3.9H667.46z" />
		<path class="st11" d="M686.31,437.01v-1.33l6.42-7.67l-6.42-7.67v-1.33h4.02l5,5.92l4.95-5.92h4.02v1.33l-6.45,7.67l6.45,7.65v1.35
		h-4.02l-5-5.9l-4.95,5.9H686.31z" />
		<path class="st11" d="M713.01,437.01v-14.1h-7.05v-3.9h18v3.9h-7.05v14.1H713.01z" />
		<path class="st11"
			d="M725.84,437.01v-17.98h14.28c0.68,0,1.3,0.17,1.86,0.5c0.56,0.33,1.01,0.78,1.35,1.35
		c0.34,0.57,0.51,1.18,0.51,1.85v4.65c0,0.67-0.17,1.28-0.51,1.85c-0.34,0.57-0.79,1.02-1.35,1.35c-0.56,0.33-1.18,0.5-1.86,0.5
		l-10.4,0.02v5.9H725.84z M739.91,427.18v-4.27h-10.2v4.27H739.91z M739.81,437.01l-5.22-6.23h5.08l4.15,4.9v1.33H739.81z" />
		<path class="st11" d="M746.51,437.01v-18h16.62v3.9h-12.7v3.15h10.23v3.9h-10.23v3.15h12.7v3.9H746.51z" />
		<path class="st11"
			d="M765.14,437.01v-18h4l6.1,7.27l6.07-7.27h4.03v18h-3.9v-12.08l-6.2,7.4l-6.23-7.38v12.05H765.14z" />
		<path class="st11" d="M788.39,437.01v-18h16.62v3.9h-12.7v3.15h10.22v3.9h-10.22v3.15h12.7v3.9H788.39z" />
		<path class="st11" d="M807.51,437.01v-18.02h3.88v14.12h14.12v3.9H807.51z" />
		<path class="st11" d="M829.54,437.01v-6.73l-8.32-11.27h4.62l5.65,7.1l5.62-7.1h4.67l-8.35,11.3v6.7H829.54z" />
		<path class="st11" d="M695.69,467.01c-0.67,0-1.28-0.17-1.85-0.5c-0.57-0.33-1.02-0.78-1.35-1.35c-0.33-0.57-0.5-1.18-0.5-1.85
		v-10.6c0-0.68,0.17-1.3,0.5-1.86c0.33-0.56,0.78-1,1.35-1.34c0.57-0.33,1.18-0.5,1.85-0.5h10.6c0.67,0,1.28,0.17,1.84,0.5
		c0.56,0.33,1.01,0.78,1.35,1.34c0.34,0.56,0.51,1.18,0.51,1.86v10.6c0,0.67-0.17,1.28-0.51,1.85c-0.34,0.57-0.79,1.02-1.35,1.35
		c-0.56,0.33-1.17,0.5-1.84,0.5H695.69z M706.06,463.11v-10.2h-10.2v10.2H706.06z" />
		<path class="st11" d="M712.81,449.01h13.6c0.67,0,1.28,0.17,1.84,0.5c0.56,0.33,1.01,0.78,1.35,1.34c0.34,0.56,0.51,1.18,0.51,1.86
		v3.38c0,0.22-0.01,0.42-0.04,0.61c-0.03,0.19-0.07,0.37-0.14,0.54c0.25,0.32,0.46,0.68,0.62,1.1c0.17,0.42,0.25,0.83,0.25,1.25
		v3.72c0,0.67-0.17,1.28-0.51,1.85c-0.34,0.57-0.79,1.02-1.35,1.35c-0.56,0.33-1.18,0.5-1.86,0.5h-14.27V449.01z M726.19,455.91v-3
		h-9.5v3H726.19z M726.89,463.11v-3.3h-10.2v3.3H726.89z" />
		<path class="st11" d="M733.59,467.01v-18h16.62v3.9h-12.7v3.15h10.22v3.9h-10.22v3.15h12.7v3.9H733.59z" />
		<path class="st11" d="M756.34,467.01c-0.67,0-1.28-0.17-1.85-0.5c-0.57-0.33-1.02-0.78-1.35-1.35c-0.33-0.57-0.5-1.18-0.5-1.85
		v-1.67h3.88v1.48h10.2v-3.15h-10.38c-0.67,0-1.28-0.17-1.85-0.5s-1.02-0.78-1.35-1.34c-0.33-0.56-0.5-1.18-0.5-1.86v-3.55
		c0-0.68,0.17-1.3,0.5-1.86c0.33-0.56,0.78-1,1.35-1.34c0.57-0.33,1.18-0.5,1.85-0.5h10.6c0.67,0,1.28,0.17,1.84,0.5
		c0.56,0.33,1.01,0.78,1.35,1.34c0.34,0.56,0.51,1.18,0.51,1.86v1.67h-3.93v-1.48h-10.2v3.15h10.42c0.67,0,1.28,0.17,1.84,0.5
		c0.56,0.33,1.01,0.78,1.35,1.34c0.34,0.56,0.51,1.18,0.51,1.86v3.55c0,0.67-0.17,1.28-0.51,1.85c-0.34,0.57-0.79,1.02-1.35,1.35
		c-0.56,0.33-1.17,0.5-1.84,0.5H756.34z" />
		<path class="st11" d="M772.76,467.01v-18h3.82v18H772.76z" />
		<path class="st11" d="M785.39,467.01v-14.1h-7.05v-3.9h18v3.9h-7.05v14.1H785.39z" />
		<path class="st11" d="M804.91,467.01v-6.73l-8.33-11.27h4.62l5.65,7.1l5.62-7.1h4.68l-8.35,11.3v6.7H804.91z" />
	</g>
	<path class="st12" d="M375,500c0-69.04,55.96-125,125-125s125,55.96,125,125" />
	<g>
		<path class="st11" d="M281.74,314.01v-18h4l10.08,12v-12h3.92v18h-4l-10.12-12.05v12.05H281.74z" />
		<path class="st11" d="M306.19,314.01c-0.67,0-1.28-0.17-1.85-0.5c-0.57-0.33-1.02-0.78-1.35-1.35c-0.33-0.57-0.5-1.18-0.5-1.85
		v-10.6c0-0.68,0.17-1.3,0.5-1.86c0.33-0.56,0.78-1,1.35-1.34c0.57-0.33,1.18-0.5,1.85-0.5h10.6c0.67,0,1.28,0.17,1.84,0.5
		c0.56,0.33,1.01,0.78,1.35,1.34c0.34,0.56,0.51,1.18,0.51,1.86v10.6c0,0.67-0.17,1.28-0.51,1.85c-0.34,0.57-0.79,1.02-1.35,1.35
		c-0.56,0.33-1.17,0.5-1.84,0.5H306.19z M316.56,310.11v-10.2h-10.2v10.2H316.56z" />
		<path class="st11"
			d="M323.24,314.01v-17.98h14.27c0.68,0,1.3,0.17,1.86,0.5c0.56,0.33,1.01,0.78,1.35,1.35
		c0.34,0.57,0.51,1.18,0.51,1.85v4.65c0,0.67-0.17,1.28-0.51,1.85c-0.34,0.57-0.79,1.02-1.35,1.35c-0.56,0.33-1.18,0.5-1.86,0.5
		l-10.4,0.02v5.9H323.24z M337.31,304.18v-4.27h-10.2v4.27H337.31z M337.21,314.01l-5.23-6.23h5.08l4.15,4.9v1.33H337.21z" />
		<path class="st11"
			d="M343.86,314.01v-18h4l6.1,7.27l6.08-7.27h4.02v18h-3.9v-12.08l-6.2,7.4l-6.23-7.38v12.05H343.86z" />
		<path class="st11" d="M367.11,299.71c0-0.68,0.17-1.3,0.5-1.86c0.33-0.56,0.78-1,1.35-1.34c0.57-0.33,1.18-0.5,1.85-0.5h10.58
		c0.68,0,1.3,0.17,1.86,0.5c0.56,0.33,1.01,0.78,1.35,1.34c0.34,0.56,0.51,1.18,0.51,1.86v14.3h-3.93v-5.8h-10.2v5.8h-3.88V299.71z
		 M381.19,304.31v-4.4h-10.2v4.4H381.19z" />
		<path class="st11" d="M387.99,314.01v-18.02h3.88v14.12h14.12v3.9H387.99z" />
	</g>
	<g>
		<path class="st11" d="M431.25,211.46v-18h16.62v3.9h-12.7v3.15h10.23v3.9h-10.23v3.15h12.7v3.9H431.25z" />
		<path class="st11" d="M450.1,211.46v-1.33l6.43-7.67l-6.43-7.67v-1.33h4.02l5,5.92l4.95-5.92h4.02v1.33l-6.45,7.67l6.45,7.65v1.35
		h-4.02l-5-5.9l-4.95,5.9H450.1z" />
		<path class="st11" d="M470.65,211.46v-17.98h14.27c0.68,0,1.3,0.17,1.86,0.5c0.56,0.33,1.01,0.78,1.35,1.35
		c0.34,0.57,0.51,1.18,0.51,1.85v4.65c0,0.67-0.17,1.28-0.51,1.85c-0.34,0.57-0.79,1.02-1.35,1.35c-0.56,0.33-1.18,0.5-1.86,0.5
		l-10.4,0.02v5.9H470.65z M484.73,201.64v-4.27h-10.2v4.27H484.73z" />
		<path class="st11" d="M490.42,211.46v-17.98h14.28c0.68,0,1.3,0.17,1.86,0.5c0.56,0.33,1.01,0.78,1.35,1.35
		c0.34,0.57,0.51,1.18,0.51,1.85v4.65c0,0.67-0.17,1.28-0.51,1.85c-0.34,0.57-0.79,1.02-1.35,1.35s-1.18,0.5-1.86,0.5l-10.4,0.02
		v5.9H490.42z M504.5,201.64v-4.27h-10.2v4.27H504.5z M504.4,211.46l-5.23-6.23h5.08l4.15,4.9v1.33H504.4z" />
		<path class="st11" d="M511.1,211.46v-18h16.62v3.9h-12.7v3.15h10.22v3.9h-10.22v3.15h12.7v3.9H511.1z" />
		<path class="st11" d="M533.85,211.46c-0.67,0-1.28-0.17-1.85-0.5c-0.57-0.33-1.02-0.78-1.35-1.35c-0.33-0.57-0.5-1.18-0.5-1.85
		v-1.67h3.88v1.48h10.2v-3.15h-10.38c-0.67,0-1.28-0.17-1.85-0.5s-1.02-0.78-1.35-1.34c-0.33-0.56-0.5-1.18-0.5-1.86v-3.55
		c0-0.68,0.17-1.3,0.5-1.86c0.33-0.56,0.78-1,1.35-1.34c0.57-0.33,1.18-0.5,1.85-0.5h10.6c0.67,0,1.28,0.17,1.84,0.5
		c0.56,0.33,1.01,0.78,1.35,1.34c0.34,0.56,0.51,1.18,0.51,1.86v1.67h-3.93v-1.48h-10.2v3.15h10.42c0.67,0,1.28,0.17,1.84,0.5
		c0.56,0.33,1.01,0.78,1.35,1.34c0.34,0.56,0.51,1.18,0.51,1.86v3.55c0,0.67-0.17,1.28-0.51,1.85c-0.34,0.57-0.79,1.02-1.35,1.35
		c-0.56,0.33-1.17,0.5-1.84,0.5H533.85z" />
		<path class="st11" d="M554.55,211.46c-0.67,0-1.28-0.17-1.85-0.5c-0.57-0.33-1.02-0.78-1.35-1.35c-0.33-0.57-0.5-1.18-0.5-1.85
		v-1.67h3.88v1.48h10.2v-3.15h-10.38c-0.67,0-1.28-0.17-1.85-0.5c-0.57-0.33-1.02-0.78-1.35-1.34c-0.33-0.56-0.5-1.18-0.5-1.86
		v-3.55c0-0.68,0.17-1.3,0.5-1.86c0.33-0.56,0.78-1,1.35-1.34c0.57-0.33,1.18-0.5,1.85-0.5h10.6c0.67,0,1.28,0.17,1.84,0.5
		c0.56,0.33,1.01,0.78,1.35,1.34c0.34,0.56,0.51,1.18,0.51,1.86v1.67h-3.92v-1.48h-10.2v3.15h10.42c0.67,0,1.28,0.17,1.84,0.5
		c0.56,0.33,1.01,0.78,1.35,1.34s0.51,1.18,0.51,1.86v3.55c0,0.67-0.17,1.28-0.51,1.85c-0.34,0.57-0.79,1.02-1.35,1.35
		c-0.56,0.33-1.17,0.5-1.84,0.5H554.55z" />
		<path class="st11" d="M449.94,241.46l-6.55-18h4.12l3.92,10.73l3.93-10.73h3.57l3.95,10.73l3.92-10.73h4.1l-6.55,18h-2.98
		l-4.25-11.58l-4.23,11.58H449.94z" />
		<path class="st11" d="M473.44,241.46v-18h16.62v3.9h-12.7v3.15h10.23v3.9h-10.23v3.15h12.7v3.9H473.44z" />
		<path class="st11" d="M491.91,241.46v-18h3.83v18H491.91z" />
		<path class="st11" d="M501.59,241.46c-0.67,0-1.28-0.17-1.85-0.5c-0.57-0.33-1.02-0.78-1.35-1.35c-0.33-0.57-0.5-1.18-0.5-1.85
		v-10.6c0-0.68,0.17-1.3,0.5-1.86c0.33-0.56,0.78-1,1.35-1.34c0.57-0.33,1.18-0.5,1.85-0.5h10.57c0.68,0,1.3,0.17,1.86,0.5
		c0.56,0.33,1.01,0.78,1.35,1.34c0.34,0.56,0.51,1.18,0.51,1.86v1.7h-3.92v-1.5h-10.2v10.2h10.2v-2.7h-3.9v-3.9h7.83v6.8
		c0,0.67-0.17,1.28-0.51,1.85c-0.34,0.57-0.79,1.02-1.35,1.35c-0.56,0.33-1.18,0.5-1.86,0.5H501.59z" />
		<path class="st11" d="M518.66,241.46v-18h3.88v7.05h10.62v-7.05h3.88v18h-3.88v-7.05h-10.62v7.05H518.66z" />
		<path class="st11" d="M546.06,241.46v-14.1h-7.05v-3.9h18v3.9h-7.05v14.1H546.06z" />
	</g>
	<g>
		<path class="st11" d="M603.39,313.99c-0.67,0-1.28-0.17-1.85-0.5c-0.57-0.33-1.02-0.78-1.35-1.35c-0.33-0.57-0.5-1.18-0.5-1.85
		v-10.6c0-0.68,0.17-1.3,0.5-1.86c0.33-0.56,0.78-1,1.35-1.34c0.57-0.33,1.18-0.5,1.85-0.5h10.6c0.67,0,1.28,0.17,1.84,0.5
		c0.56,0.33,1.01,0.78,1.35,1.34c0.34,0.56,0.51,1.18,0.51,1.86v10.6c0,0.67-0.17,1.28-0.51,1.85c-0.34,0.57-0.79,1.02-1.35,1.35
		c-0.56,0.33-1.17,0.5-1.84,0.5H603.39z M613.77,310.09v-10.2h-10.2v10.2H613.77z" />
		<path class="st11" d="M620.52,295.99h13.6c0.67,0,1.28,0.17,1.84,0.5c0.56,0.33,1.01,0.78,1.35,1.34c0.34,0.56,0.51,1.18,0.51,1.86
		v3.38c0,0.22-0.01,0.42-0.04,0.61c-0.03,0.19-0.07,0.37-0.14,0.54c0.25,0.32,0.46,0.68,0.62,1.1s0.25,0.83,0.25,1.25v3.72
		c0,0.67-0.17,1.28-0.51,1.85c-0.34,0.57-0.79,1.02-1.35,1.35c-0.56,0.33-1.18,0.5-1.86,0.5h-14.28V295.99z M633.89,302.89v-3h-9.5
		v3H633.89z M634.59,310.09v-3.3h-10.2v3.3H634.59z" />
		<path class="st11" d="M641.29,313.99v-18h16.62v3.9h-12.7v3.15h10.22v3.9h-10.22v3.15h12.7v3.9H641.29z" />
		<path class="st11" d="M664.04,313.99c-0.67,0-1.28-0.17-1.85-0.5c-0.57-0.33-1.02-0.78-1.35-1.35c-0.33-0.57-0.5-1.18-0.5-1.85
		v-1.67h3.88v1.48h10.2v-3.15h-10.38c-0.67,0-1.28-0.17-1.85-0.5s-1.02-0.78-1.35-1.34c-0.33-0.56-0.5-1.18-0.5-1.86v-3.55
		c0-0.68,0.17-1.3,0.5-1.86c0.33-0.56,0.78-1,1.35-1.34c0.57-0.33,1.18-0.5,1.85-0.5h10.6c0.67,0,1.28,0.17,1.84,0.5
		c0.56,0.33,1.01,0.78,1.35,1.34c0.34,0.56,0.51,1.18,0.51,1.86v1.67h-3.93v-1.48h-10.2v3.15h10.42c0.67,0,1.28,0.17,1.84,0.5
		c0.56,0.33,1.01,0.78,1.35,1.34c0.34,0.56,0.51,1.18,0.51,1.86v3.55c0,0.67-0.17,1.28-0.51,1.85c-0.34,0.57-0.79,1.02-1.35,1.35
		c-0.56,0.33-1.17,0.5-1.84,0.5H664.04z" />
		<path class="st11" d="M680.47,313.99v-18h3.83v18H680.47z" />
		<path class="st11" d="M693.09,313.99v-14.1h-7.05v-3.9h18v3.9h-7.05v14.1H693.09z" />
		<path class="st11" d="M712.62,313.99v-6.73l-8.33-11.27h4.62l5.65,7.1l5.62-7.1h4.68l-8.35,11.3v6.7H712.62z" />
	</g>
	<g>
		<g>
			<path class="st11"
				d="M81.06,496.13l-9.69-0.16l0.8,0.67l-0.07,4.04l-5.38-4.66l0.05-3.16l14.32,0.23L81.06,496.13z" />
			<path class="st11" d="M80.72,490.52c-0.28,0.43-0.65,0.77-1.09,1.01c-0.45,0.25-0.93,0.36-1.45,0.34l-1.11-0.04l0.11-3.04
			l0.95,0.04l0.3-7.97l-2.68-0.1l-0.41,11.02l-8.59-0.32l0.52-14.06l3.04,0.11l-0.41,11.02l2.49,0.09l0.3-8.11
			c0.02-0.53,0.17-1.01,0.44-1.44s0.64-0.77,1.08-1.02c0.45-0.25,0.94-0.36,1.47-0.34l3.02,0.11c0.52,0.02,0.99,0.17,1.42,0.45
			c0.43,0.28,0.77,0.65,1.01,1.09c0.25,0.45,0.36,0.94,0.34,1.47l-0.31,8.25C81.15,489.61,81,490.09,80.72,490.52z" />
			<path class="st11" d="M151.7,267.21l-4.56-3.16c-0.44-0.3-0.76-0.69-0.97-1.15c-0.21-0.47-0.29-0.95-0.26-1.46
			c0.04-0.51,0.21-0.98,0.51-1.42l4.62-6.67l-2.34-1.62l-4.55,6.56l0.95,0.66l-1.73,2.5l-1.08-0.75c-0.44-0.3-0.76-0.69-0.97-1.15
			s-0.29-0.95-0.26-1.46s0.21-0.98,0.51-1.42l4.7-6.79c0.3-0.44,0.68-0.76,1.15-0.97c0.46-0.21,0.95-0.3,1.46-0.27
			c0.51,0.03,0.98,0.2,1.42,0.5l2.6,1.8c0.44,0.3,0.76,0.69,0.97,1.15c0.21,0.47,0.3,0.96,0.27,1.47c-0.03,0.51-0.2,0.98-0.5,1.42
			l-4.62,6.67l1.91,1.33l6.28-9.06l2.5,1.73L151.7,267.21z" />
			<path class="st11" d="M161.58,252.33c-0.5,0.17-1.02,0.22-1.56,0.15c-0.54-0.07-1.01-0.26-1.42-0.57l-6.61-4.98
			c-0.42-0.32-0.74-0.72-0.94-1.2c-0.2-0.48-0.28-0.98-0.23-1.49s0.23-0.98,0.55-1.41l4.96-6.6c0.32-0.42,0.72-0.73,1.2-0.92
			c0.48-0.19,0.98-0.25,1.5-0.19c0.52,0.06,0.99,0.25,1.42,0.57l6.61,4.98c0.41,0.31,0.73,0.71,0.95,1.21s0.31,1.01,0.29,1.54
			c-0.02,0.53-0.2,1.01-0.52,1.43l-4.96,6.6C162.5,251.86,162.09,252.16,161.58,252.33z M158.21,247.8l-0.45-8.28l-3.82,5.07
			L158.21,247.8z M161.29,248.07l3.82-5.07l-4.26-3.21L161.29,248.07z" />
			<path class="st11" d="M353.24,106.88l-1.87-5.23c-0.18-0.5-0.22-1-0.12-1.5c0.1-0.5,0.32-0.95,0.64-1.34s0.74-0.68,1.24-0.85
			l7.64-2.74l-0.96-2.68l-7.51,2.69l0.39,1.09l-2.87,1.03l-0.44-1.24c-0.18-0.5-0.22-1-0.12-1.5c0.1-0.5,0.32-0.95,0.64-1.34
			c0.33-0.39,0.74-0.68,1.24-0.85l7.77-2.79c0.5-0.18,1-0.22,1.5-0.12s0.95,0.31,1.35,0.63c0.4,0.32,0.69,0.73,0.86,1.23l1.07,2.98
			c0.18,0.5,0.22,1,0.12,1.5s-0.31,0.95-0.64,1.35c-0.32,0.4-0.73,0.69-1.23,0.86l-7.64,2.74l0.79,2.19l10.38-3.72l1.03,2.87
			L353.24,106.88z" />
			<path class="st11" d="M369.94,100.58c-0.5-0.12-0.94-0.35-1.32-0.69s-0.65-0.75-0.81-1.25l-0.33-1.06l2.9-0.91l0.29,0.91l7.61-2.4
			l-0.81-2.56l-10.52,3.31l-2.58-8.2l13.42-4.22l0.91,2.9l-10.52,3.31l0.75,2.37l7.74-2.44c0.51-0.16,1.01-0.18,1.5-0.07
			s0.94,0.34,1.32,0.68c0.38,0.34,0.66,0.76,0.82,1.27l0.91,2.88c0.16,0.49,0.17,0.99,0.05,1.49c-0.12,0.5-0.35,0.94-0.69,1.32
			c-0.34,0.38-0.76,0.66-1.27,0.82l-7.88,2.48C370.94,100.68,370.44,100.7,369.94,100.58z" />
			<path class="st11" d="M617.91,95.65c-0.34-0.38-0.58-0.82-0.71-1.31c-0.13-0.5-0.12-0.99,0.03-1.49l0.32-1.07l2.92,0.88
			l-0.27,0.92l7.64,2.3l0.76-2.53l-8.31-2.5l0.88-2.92l7.79,2.34l0.73-2.44l-7.13-2.14l-0.32,1.07l-2.92-0.88l0.37-1.22
			c0.15-0.51,0.42-0.93,0.8-1.28c0.38-0.34,0.82-0.58,1.31-0.7c0.49-0.12,1-0.11,1.5,0.05l7.41,2.23c0.51,0.15,0.93,0.42,1.28,0.79
			c0.34,0.37,0.58,0.81,0.7,1.3c0.12,0.49,0.11,0.99-0.05,1.5l-0.82,2.74c-0.04,0.14-0.1,0.29-0.16,0.44
			c-0.07,0.15-0.14,0.29-0.21,0.4c0.12,0.29,0.2,0.6,0.22,0.93c0.02,0.33-0.01,0.66-0.11,1l-0.85,2.84
			c-0.15,0.5-0.41,0.92-0.78,1.26c-0.37,0.34-0.81,0.58-1.3,0.71c-0.5,0.13-1,0.12-1.51-0.04l-7.93-2.38
			C618.68,96.29,618.26,96.03,617.91,95.65z" />
			<path class="st11" d="M633.61,100.41c-0.32-0.42-0.52-0.9-0.62-1.43s-0.06-1.04,0.11-1.53l2.69-7.83c0.17-0.5,0.46-0.92,0.85-1.26
			s0.85-0.57,1.35-0.68c0.5-0.11,1-0.09,1.51,0.09l7.81,2.68c0.5,0.17,0.92,0.46,1.24,0.86c0.33,0.4,0.54,0.86,0.64,1.37
			s0.07,1.02-0.1,1.52l-2.69,7.83c-0.17,0.49-0.45,0.91-0.86,1.27s-0.86,0.61-1.37,0.75c-0.51,0.14-1.02,0.12-1.52-0.05l-7.81-2.69
			C634.33,101.13,633.92,100.84,633.61,100.41z M636.87,95.8l7.74-2.98l-6-2.06L636.87,95.8z M637.56,98.82l6,2.06l1.73-5.04
			L637.56,98.82z" />
			<path class="st11" d="M835.97,243.95c-0.05-0.51,0.02-1,0.21-1.48c0.19-0.48,0.49-0.87,0.91-1.18l0.89-0.67l1.83,2.44l-0.76,0.57
			l4.78,6.39l2.12-1.59l-5.2-6.94l2.44-1.83l4.88,6.51l2.04-1.53l-4.46-5.96l-0.89,0.67l-1.83-2.44l1.02-0.76
			c0.42-0.32,0.89-0.5,1.4-0.55c0.51-0.05,1,0.02,1.47,0.22s0.86,0.5,1.18,0.93l4.64,6.2c0.32,0.42,0.5,0.89,0.56,1.4
			s-0.01,0.99-0.21,1.46c-0.2,0.47-0.51,0.86-0.93,1.18l-2.29,1.72c-0.12,0.09-0.25,0.17-0.39,0.26c-0.15,0.08-0.28,0.15-0.41,0.2
			c-0.07,0.3-0.2,0.59-0.38,0.88c-0.18,0.28-0.41,0.53-0.68,0.73l-2.37,1.78c-0.41,0.31-0.87,0.49-1.38,0.55
			c-0.5,0.06-1-0.01-1.47-0.2c-0.48-0.19-0.87-0.5-1.19-0.92l-4.96-6.63C836.2,244.93,836.02,244.46,835.97,243.95z" />
			<path class="st11" d="M845.72,257.15c-0.03-0.51,0.06-1,0.27-1.47c0.21-0.47,0.53-0.85,0.95-1.14l0.92-0.63l1.73,2.51l-0.79,0.54
			l4.53,6.57l2.21-1.53l-6.26-9.07l7.08-4.88l7.99,11.58l-2.51,1.73l-6.26-9.07l-2.05,1.41l4.61,6.68c0.3,0.44,0.47,0.91,0.5,1.42
			c0.04,0.51-0.05,0.99-0.26,1.46c-0.21,0.47-0.53,0.85-0.97,1.15l-2.49,1.72c-0.43,0.29-0.89,0.46-1.41,0.49s-1-0.06-1.47-0.27
			c-0.47-0.21-0.85-0.53-1.15-0.97l-4.69-6.8C845.92,258.13,845.75,257.66,845.72,257.15z" />
		</g>
		<g>
			<g>
				<path class="st13"
					d="M79.11,494.18l-9.69-0.16l0.8,0.67l-0.07,4.04l-5.38-4.66l0.05-3.16l14.32,0.23L79.11,494.18z" />
				<path class="st13" d="M78.77,488.57c-0.28,0.43-0.65,0.77-1.09,1.01c-0.45,0.25-0.93,0.36-1.45,0.34l-1.11-0.04l0.11-3.04
				l0.95,0.04l0.3-7.97l-2.68-0.1l-0.41,11.02l-8.59-0.32l0.52-14.06l3.04,0.11l-0.41,11.02l2.49,0.09l0.3-8.11
				c0.02-0.53,0.17-1.01,0.44-1.44s0.64-0.77,1.08-1.02c0.45-0.25,0.94-0.36,1.47-0.34l3.02,0.11c0.52,0.02,0.99,0.17,1.42,0.45
				c0.43,0.28,0.77,0.65,1.01,1.09c0.25,0.45,0.36,0.94,0.34,1.47l-0.31,8.25C79.2,487.66,79.05,488.14,78.77,488.57z" />
				<path class="st13" d="M149.75,265.26l-4.56-3.16c-0.44-0.3-0.76-0.69-0.97-1.15c-0.21-0.47-0.29-0.95-0.26-1.46
				c0.04-0.51,0.21-0.98,0.51-1.42l4.62-6.67l-2.34-1.62l-4.55,6.56l0.95,0.66l-1.73,2.5l-1.08-0.75c-0.44-0.3-0.76-0.69-0.97-1.15
				s-0.29-0.95-0.26-1.46s0.21-0.98,0.51-1.42l4.7-6.79c0.3-0.44,0.68-0.76,1.15-0.97c0.46-0.21,0.95-0.3,1.46-0.27
				c0.51,0.03,0.98,0.2,1.42,0.5l2.6,1.8c0.44,0.3,0.76,0.69,0.97,1.15c0.21,0.47,0.3,0.96,0.27,1.47c-0.03,0.51-0.2,0.98-0.5,1.42
				l-4.62,6.67l1.91,1.33l6.28-9.06l2.5,1.73L149.75,265.26z" />
				<path class="st13" d="M159.63,250.38c-0.5,0.17-1.02,0.22-1.56,0.15c-0.54-0.07-1.01-0.26-1.42-0.57l-6.61-4.98
				c-0.42-0.32-0.74-0.72-0.94-1.2c-0.2-0.48-0.28-0.98-0.23-1.49s0.23-0.98,0.55-1.41l4.96-6.6c0.32-0.42,0.72-0.73,1.2-0.92
				c0.48-0.19,0.98-0.25,1.5-0.19c0.52,0.06,0.99,0.25,1.42,0.57l6.61,4.98c0.41,0.31,0.73,0.71,0.95,1.21s0.31,1.01,0.29,1.54
				c-0.02,0.53-0.2,1.01-0.52,1.43l-4.96,6.6C160.55,249.91,160.14,250.21,159.63,250.38z M156.26,245.85l-0.45-8.28l-3.82,5.07
				L156.26,245.85z M159.34,246.12l3.82-5.07l-4.26-3.21L159.34,246.12z" />
				<path class="st13" d="M351.29,104.93l-1.87-5.23c-0.18-0.5-0.22-1-0.12-1.5c0.1-0.5,0.32-0.95,0.64-1.34s0.74-0.68,1.24-0.85
				l7.64-2.74l-0.96-2.68l-7.51,2.69l0.39,1.09l-2.87,1.03l-0.44-1.24c-0.18-0.5-0.22-1-0.12-1.5c0.1-0.5,0.32-0.95,0.64-1.34
				c0.33-0.39,0.74-0.68,1.24-0.85l7.77-2.79c0.5-0.18,1-0.22,1.5-0.12s0.95,0.31,1.35,0.63c0.4,0.32,0.69,0.73,0.86,1.23l1.07,2.98
				c0.18,0.5,0.22,1,0.12,1.5s-0.31,0.95-0.64,1.35c-0.32,0.4-0.73,0.69-1.23,0.86l-7.64,2.74l0.79,2.19l10.38-3.72l1.03,2.87
				L351.29,104.93z" />
				<path class="st13" d="M367.99,98.63c-0.5-0.12-0.94-0.35-1.32-0.69s-0.65-0.75-0.81-1.25l-0.33-1.06l2.9-0.91l0.29,0.91l7.61-2.4
				l-0.81-2.56L365,93.98l-2.58-8.2l13.42-4.22l0.91,2.9l-10.52,3.31l0.75,2.37l7.74-2.44c0.51-0.16,1.01-0.18,1.5-0.07
				s0.94,0.34,1.32,0.68c0.38,0.34,0.66,0.76,0.82,1.27l0.91,2.88c0.16,0.49,0.17,0.99,0.05,1.49c-0.12,0.5-0.35,0.94-0.69,1.32
				c-0.34,0.38-0.76,0.66-1.27,0.82l-7.88,2.48C368.99,98.73,368.49,98.75,367.99,98.63z" />
				<path class="st13" d="M615.96,93.7c-0.34-0.38-0.58-0.82-0.71-1.31c-0.13-0.5-0.12-0.99,0.03-1.49l0.32-1.07l2.92,0.88
				l-0.27,0.92l7.64,2.3l0.76-2.53l-8.31-2.5l0.88-2.92l7.79,2.34l0.73-2.44l-7.13-2.14l-0.32,1.07l-2.92-0.88l0.37-1.22
				c0.15-0.51,0.42-0.93,0.8-1.28c0.38-0.34,0.82-0.58,1.31-0.7c0.49-0.12,1-0.11,1.5,0.05l7.41,2.23c0.51,0.15,0.93,0.42,1.28,0.79
				c0.34,0.37,0.58,0.81,0.7,1.3c0.12,0.49,0.11,0.99-0.05,1.5l-0.82,2.74c-0.04,0.14-0.1,0.29-0.16,0.44
				c-0.07,0.15-0.14,0.29-0.21,0.4c0.12,0.29,0.2,0.6,0.22,0.93c0.02,0.33-0.01,0.66-0.11,1l-0.85,2.84
				c-0.15,0.5-0.41,0.92-0.78,1.26c-0.37,0.34-0.81,0.58-1.3,0.71c-0.5,0.13-1,0.12-1.51-0.04l-7.93-2.38
				C616.73,94.34,616.31,94.08,615.96,93.7z" />
				<path class="st13" d="M631.66,98.46c-0.32-0.42-0.52-0.9-0.62-1.43s-0.06-1.04,0.11-1.53l2.69-7.83c0.17-0.5,0.46-0.92,0.85-1.26
				s0.85-0.57,1.35-0.68c0.5-0.11,1-0.09,1.51,0.09l7.81,2.68c0.5,0.17,0.92,0.46,1.24,0.86c0.33,0.4,0.54,0.86,0.64,1.37
				s0.07,1.02-0.1,1.52l-2.69,7.83c-0.17,0.49-0.45,0.91-0.86,1.27s-0.86,0.61-1.37,0.75c-0.51,0.14-1.02,0.12-1.52-0.05l-7.81-2.69
				C632.38,99.18,631.97,98.89,631.66,98.46z M634.92,93.85l7.74-2.98l-6-2.06L634.92,93.85z M635.61,96.87l6,2.06l1.73-5.04
				L635.61,96.87z" />
				<path class="st13" d="M834.02,242c-0.05-0.51,0.02-1,0.21-1.48c0.19-0.48,0.49-0.87,0.91-1.18l0.89-0.67l1.83,2.44l-0.76,0.57
				l4.78,6.39l2.12-1.59l-5.2-6.94l2.44-1.83l4.88,6.51l2.04-1.53l-4.46-5.96l-0.89,0.67l-1.83-2.44l1.02-0.76
				c0.42-0.32,0.89-0.5,1.4-0.55c0.51-0.05,1,0.02,1.47,0.22s0.86,0.5,1.18,0.93l4.64,6.2c0.32,0.42,0.5,0.89,0.56,1.4
				s-0.01,0.99-0.21,1.46c-0.2,0.47-0.51,0.86-0.93,1.18l-2.29,1.72c-0.12,0.09-0.25,0.17-0.39,0.26c-0.15,0.08-0.28,0.15-0.41,0.2
				c-0.07,0.3-0.2,0.59-0.38,0.88c-0.18,0.28-0.41,0.53-0.68,0.73l-2.37,1.78c-0.41,0.31-0.87,0.49-1.38,0.55
				c-0.5,0.06-1-0.01-1.47-0.2c-0.48-0.19-0.87-0.5-1.19-0.92l-4.96-6.63C834.25,242.98,834.07,242.51,834.02,242z" />
				<path class="st13" d="M843.77,255.2c-0.03-0.51,0.06-1,0.27-1.47c0.21-0.47,0.53-0.85,0.95-1.14l0.92-0.63l1.73,2.51l-0.79,0.54
				l4.53,6.57l2.21-1.53l-6.26-9.07l7.08-4.88l7.99,11.58l-2.51,1.73l-6.26-9.07l-2.05,1.41l4.61,6.68c0.3,0.44,0.47,0.91,0.5,1.42
				c0.04,0.51-0.05,0.99-0.26,1.46c-0.21,0.47-0.53,0.85-0.97,1.15l-2.49,1.72c-0.43,0.29-0.89,0.46-1.41,0.49s-1-0.06-1.47-0.27
				c-0.47-0.21-0.85-0.53-1.15-0.97l-4.69-6.8C843.97,256.18,843.8,255.71,843.77,255.2z" />
			</g>
		</g>
	</g>
	<g>
		<g>
			<path class="st14" d="M101.19,501.57c0-221.36,179.45-400.81,400.81-400.81s400.81,179.45,400.81,400.81" />
		</g>
		<g>
			<path class="st15" d="M99.19,499.57C99.19,278.21,278.64,98.76,500,98.76s400.81,179.45,400.81,400.81" />
		</g>
	</g>
	<g>
		<g>
			<path class="st11"
				d="M475.01,83.08v-14.4h3.2l4.88,5.82l4.86-5.82h3.22v14.4h-3.12v-9.66l-4.96,5.92l-4.98-5.9v9.64H475.01z" />
			<path class="st11" d="M493.61,71.64c0-0.55,0.13-1.04,0.4-1.49c0.27-0.45,0.63-0.8,1.08-1.07c0.45-0.27,0.95-0.4,1.48-0.4h8.46
			c0.55,0,1.04,0.13,1.49,0.4c0.45,0.27,0.81,0.62,1.08,1.07c0.27,0.45,0.41,0.94,0.41,1.49v11.44h-3.14v-4.64h-8.16v4.64h-3.1
			V71.64z M504.87,75.32V71.8h-8.16v3.52H504.87z" />
			<path class="st11" d="M509.79,83.08v-14.4h3.06v14.4H509.79z" />
			<path class="st11" d="M514.59,83.08V68.66h3.1v11.3h11.3v3.12H514.59z" />
		</g>
		<g>
			<g>
				<path class="st13"
					d="M473.01,81.08v-14.4h3.2l4.88,5.82l4.86-5.82h3.22v14.4h-3.12v-9.66l-4.96,5.92l-4.98-5.9v9.64H473.01z" />
				<path class="st13" d="M491.61,69.64c0-0.55,0.13-1.04,0.4-1.49c0.27-0.45,0.63-0.8,1.08-1.07c0.45-0.27,0.95-0.4,1.48-0.4h8.46
				c0.55,0,1.04,0.13,1.49,0.4c0.45,0.27,0.81,0.62,1.08,1.07c0.27,0.45,0.41,0.94,0.41,1.49v11.44h-3.14v-4.64h-8.16v4.64h-3.1
				V69.64z M502.87,73.32V69.8h-8.16v3.52H502.87z" />
				<path class="st13" d="M507.79,81.08v-14.4h3.06v14.4H507.79z" />
				<path class="st13" d="M512.59,81.08V66.66h3.1v11.3h11.3v3.12H512.59z" />
			</g>
		</g>
	</g>
	<g>
		<g>
			<path class="st16" d="M50.12,501.16C50.12,251.59,252.43,49.28,502,49.28s451.88,202.31,451.88,451.88" />
		</g>
		<g>
			<path class="st17" d="M48.12,499.16C48.12,249.59,250.43,47.28,500,47.28s451.88,202.31,451.88,451.88" />
		</g>
	</g>
	<g>
		<g>
			<path class="st11" d="M30.3,497.47l-5.65-0.13c-0.54-0.01-1.03-0.16-1.47-0.44c-0.44-0.28-0.79-0.65-1.04-1.1
			s-0.37-0.95-0.36-1.49l0.19-8.27l-2.9-0.07l-0.18,8.12l1.18,0.03l-0.07,3.1l-1.34-0.03c-0.54-0.01-1.03-0.16-1.47-0.44
			s-0.79-0.65-1.04-1.1c-0.25-0.45-0.37-0.95-0.36-1.49l0.19-8.41c0.01-0.54,0.15-1.03,0.43-1.47c0.27-0.44,0.64-0.79,1.09-1.05
			c0.45-0.26,0.95-0.38,1.49-0.37l3.22,0.07c0.54,0.01,1.03,0.16,1.47,0.44c0.44,0.28,0.79,0.65,1.05,1.1s0.38,0.95,0.37,1.49
			l-0.19,8.27l2.37,0.05l0.25-11.22l3.1,0.07L30.3,497.47z" />
			<path class="st11" d="M30.35,479.27c-0.33,0.43-0.74,0.76-1.23,1s-1,0.35-1.53,0.32l-8.42-0.49c-0.54-0.03-1.03-0.19-1.47-0.49
			s-0.79-0.67-1.04-1.14s-0.36-0.96-0.33-1.5l0.48-8.4c0.03-0.54,0.2-1.02,0.5-1.45c0.3-0.43,0.69-0.77,1.16-1.01
			c0.47-0.24,0.98-0.35,1.52-0.32l8.42,0.49c0.53,0.03,1.02,0.19,1.48,0.49c0.46,0.3,0.83,0.68,1.11,1.14
			c0.28,0.46,0.4,0.96,0.37,1.5l-0.48,8.4C30.86,478.36,30.68,478.85,30.35,479.27z M24.93,477.34l-5.05-6.77l-0.37,6.45
			L24.93,477.34z M27.7,475.83l0.37-6.45l-5.42-0.31L27.7,475.83z" />
			<path class="st11" d="M112.75,234.55l-4.61-3.27c-0.44-0.31-0.77-0.71-0.97-1.19c-0.21-0.48-0.29-0.98-0.25-1.49
			s0.22-0.99,0.53-1.44l4.78-6.74l-2.36-1.68l-4.7,6.63l0.96,0.68l-1.79,2.53l-1.09-0.77c-0.44-0.31-0.77-0.71-0.97-1.19
			c-0.21-0.48-0.29-0.98-0.25-1.49c0.04-0.52,0.22-0.99,0.53-1.44l4.86-6.86c0.31-0.44,0.71-0.77,1.18-0.98s0.97-0.3,1.49-0.26
			c0.52,0.04,1,0.21,1.44,0.52l2.63,1.86c0.44,0.31,0.77,0.71,0.97,1.19c0.21,0.48,0.29,0.98,0.25,1.5c-0.04,0.52-0.21,1-0.52,1.44
			l-4.78,6.74l1.93,1.37l6.49-9.16l2.53,1.79L112.75,234.55z" />
			<path class="st11" d="M123.02,219.52c-0.48,0.19-0.99,0.26-1.51,0.2c-0.52-0.06-0.99-0.24-1.41-0.56l-0.9-0.69l1.88-2.46
			l0.77,0.59l4.93-6.46l-2.17-1.66l-6.81,8.92l-6.96-5.31l8.69-11.39l2.46,1.88l-6.81,8.92l2.01,1.54l5.02-6.57
			c0.33-0.43,0.73-0.74,1.21-0.94c0.48-0.19,0.98-0.26,1.5-0.21c0.52,0.06,0.99,0.25,1.42,0.58l2.45,1.87
			c0.42,0.32,0.72,0.72,0.91,1.21c0.19,0.49,0.26,0.99,0.2,1.5c-0.06,0.52-0.25,0.99-0.58,1.42l-5.1,6.68
			C123.91,219.02,123.5,219.33,123.02,219.52z" />
			<path class="st11" d="M335.18,59.29c-0.51-0.1-0.97-0.32-1.38-0.64c-0.41-0.33-0.7-0.74-0.88-1.23l-0.39-1.07l2.91-1.06l0.33,0.91
			l7.64-2.78l-0.92-2.53l-8.3,3.02L333.13,51l7.79-2.83l-0.89-2.44l-7.12,2.59l0.39,1.07l-2.91,1.06l-0.44-1.22
			c-0.18-0.51-0.23-1.02-0.12-1.53c0.1-0.51,0.32-0.97,0.65-1.37c0.33-0.4,0.75-0.69,1.25-0.88l7.41-2.69
			c0.51-0.18,1.02-0.23,1.53-0.13s0.96,0.31,1.36,0.64c0.4,0.33,0.69,0.75,0.88,1.26l1,2.74c0.05,0.14,0.1,0.29,0.13,0.46
			c0.04,0.17,0.06,0.32,0.07,0.46c0.27,0.16,0.52,0.37,0.74,0.62s0.39,0.55,0.51,0.88l1.03,2.84c0.18,0.5,0.22,1,0.13,1.51
			c-0.1,0.51-0.31,0.97-0.63,1.37c-0.33,0.41-0.74,0.7-1.25,0.89l-7.92,2.88C336.2,59.35,335.69,59.4,335.18,59.29z" />
			<path class="st11" d="M350.91,53.61c-0.52-0.15-0.98-0.41-1.38-0.79c-0.4-0.37-0.69-0.81-0.85-1.31l-2.6-8.02
			c-0.17-0.51-0.19-1.03-0.08-1.55c0.12-0.52,0.34-0.98,0.68-1.38s0.77-0.68,1.28-0.85l8-2.59c0.51-0.17,1.03-0.19,1.54-0.06
			c0.51,0.13,0.96,0.37,1.36,0.72c0.4,0.35,0.68,0.79,0.85,1.3l2.6,8.02c0.16,0.5,0.19,1.02,0.08,1.56
			c-0.11,0.54-0.33,1.02-0.66,1.45c-0.33,0.43-0.75,0.72-1.27,0.89l-8,2.59C351.94,53.76,351.43,53.77,350.91,53.61z M350.75,47.86
			l4.48-7.16l-6.15,1.99L350.75,47.86z M353.16,49.89l6.15-1.99l-1.67-5.17L353.16,49.89z" />
			<path class="st11" d="M635.44,48.08c-0.35-0.39-0.58-0.84-0.71-1.34s-0.11-1.01,0.04-1.51l0.33-1.08l2.96,0.91l-0.29,0.93
			l7.77,2.39l0.79-2.58l-8.44-2.6l0.91-2.96l7.92,2.44l0.76-2.48l-7.24-2.23l-0.33,1.08l-2.96-0.91l0.38-1.24
			c0.16-0.52,0.43-0.95,0.82-1.29c0.39-0.35,0.83-0.58,1.34-0.7s1.01-0.1,1.53,0.06l7.53,2.32c0.52,0.16,0.95,0.43,1.3,0.81
			s0.58,0.83,0.7,1.33c0.12,0.5,0.1,1.01-0.06,1.53l-0.86,2.79c-0.04,0.14-0.1,0.29-0.17,0.45c-0.07,0.16-0.14,0.29-0.22,0.41
			c0.12,0.29,0.19,0.61,0.22,0.95c0.02,0.34-0.02,0.68-0.12,1.01l-0.89,2.89c-0.16,0.5-0.42,0.93-0.81,1.28s-0.83,0.59-1.33,0.71
			c-0.51,0.13-1.02,0.11-1.53-0.05l-8.06-2.48C636.22,48.74,635.79,48.47,635.44,48.08z" />
			<path class="st11" d="M651.4,53.08c-0.33-0.4-0.55-0.86-0.66-1.37c-0.11-0.51-0.08-1.01,0.1-1.51l0.37-1.07l2.93,1.02l-0.32,0.92
			l7.68,2.66l0.9-2.58l-10.61-3.68l2.87-8.27l13.53,4.7l-1.02,2.93l-10.6-3.68l-0.83,2.39l7.81,2.71c0.51,0.18,0.93,0.46,1.27,0.86
			c0.33,0.4,0.56,0.85,0.67,1.36s0.08,1.02-0.1,1.53l-1.01,2.91c-0.17,0.5-0.46,0.91-0.86,1.25s-0.86,0.55-1.37,0.66
			c-0.51,0.11-1.02,0.08-1.53-0.1l-7.94-2.76C652.16,53.77,651.74,53.49,651.4,53.08z" />
			<path class="st11" d="M881.12,220.38l2.91-2.17l-5.22-7l2.22-1.66l11.98,2.36l1.66,2.22l-6.28,4.69l1.16,1.56l-2.5,1.87
			l-1.16-1.56l-2.91,2.17L881.12,220.38z M884.33,213.39l2.21,2.96l2.4-1.79L884.33,213.39z" />
			<path class="st11" d="M886.5,226.94c0-0.54,0.11-1.06,0.35-1.55c0.24-0.5,0.58-0.89,1.01-1.2l6.92-4.81
			c0.44-0.31,0.93-0.48,1.46-0.52c0.53-0.04,1.04,0.04,1.52,0.25c0.48,0.21,0.88,0.53,1.19,0.98l4.8,6.9
			c0.31,0.44,0.48,0.93,0.5,1.45c0.03,0.52-0.07,1.03-0.29,1.51c-0.22,0.48-0.56,0.88-1,1.19l-6.92,4.81
			c-0.43,0.3-0.92,0.48-1.47,0.53c-0.55,0.05-1.07-0.02-1.58-0.21c-0.5-0.19-0.91-0.51-1.22-0.95l-4.8-6.9
			C886.67,227.97,886.51,227.48,886.5,226.94z M890.72,228l3.69,5.31l4.46-3.1L890.72,228z M891.96,225.11l8.15,2.2l-3.69-5.31
			L891.96,225.11z" />
		</g>
		<g>
			<g>
				<path class="st18" d="M28.28,495.44l-5.65-0.13c-0.54-0.01-1.03-0.16-1.47-0.44c-0.44-0.28-0.79-0.65-1.04-1.1
				s-0.37-0.95-0.36-1.49l0.19-8.27l-2.9-0.07l-0.18,8.12l1.18,0.03l-0.07,3.1l-1.34-0.03c-0.54-0.01-1.03-0.16-1.47-0.44
				s-0.79-0.65-1.04-1.1c-0.25-0.45-0.37-0.95-0.36-1.49l0.19-8.41c0.01-0.54,0.15-1.03,0.43-1.47c0.27-0.44,0.64-0.79,1.09-1.05
				c0.45-0.26,0.95-0.38,1.49-0.37l3.22,0.07c0.54,0.01,1.03,0.16,1.47,0.44c0.44,0.28,0.79,0.65,1.05,1.1s0.38,0.95,0.37,1.49
				l-0.19,8.27l2.37,0.05l0.25-11.22l3.1,0.07L28.28,495.44z" />
				<path class="st18" d="M28.32,477.25c-0.33,0.43-0.74,0.76-1.23,1s-1,0.35-1.53,0.32l-8.42-0.49c-0.54-0.03-1.03-0.19-1.47-0.49
				s-0.79-0.67-1.04-1.14s-0.36-0.96-0.33-1.5l0.48-8.4c0.03-0.54,0.2-1.02,0.5-1.45c0.3-0.43,0.69-0.77,1.16-1.01
				c0.47-0.24,0.98-0.35,1.52-0.32l8.42,0.49c0.53,0.03,1.02,0.19,1.48,0.49c0.46,0.3,0.83,0.68,1.11,1.14
				c0.28,0.46,0.4,0.96,0.37,1.5l-0.48,8.4C28.83,476.34,28.65,476.82,28.32,477.25z M22.9,475.31l-5.05-6.77L17.48,475L22.9,475.31
				z M25.67,473.81l0.37-6.45l-5.42-0.31L25.67,473.81z" />
				<path class="st18" d="M110.72,232.52l-4.61-3.27c-0.44-0.31-0.77-0.71-0.97-1.19c-0.21-0.48-0.29-0.98-0.25-1.49
				s0.22-0.99,0.53-1.44l4.78-6.74l-2.36-1.68l-4.7,6.63l0.96,0.68l-1.79,2.53l-1.09-0.77c-0.44-0.31-0.77-0.71-0.97-1.19
				c-0.21-0.48-0.29-0.98-0.25-1.49c0.04-0.52,0.22-0.99,0.53-1.44l4.86-6.86c0.31-0.44,0.71-0.77,1.18-0.98s0.97-0.3,1.49-0.26
				c0.52,0.04,1,0.21,1.44,0.52l2.63,1.86c0.44,0.31,0.77,0.71,0.97,1.19c0.21,0.48,0.29,0.98,0.25,1.5c-0.04,0.52-0.21,1-0.52,1.44
				l-4.78,6.74l1.93,1.37l6.49-9.16l2.53,1.79L110.72,232.52z" />
				<path class="st18" d="M120.99,217.5c-0.48,0.19-0.99,0.26-1.51,0.2c-0.52-0.06-0.99-0.24-1.41-0.56l-0.9-0.69l1.88-2.46
				l0.77,0.59l4.93-6.46l-2.17-1.66l-6.81,8.92l-6.96-5.31l8.69-11.39l2.46,1.88l-6.81,8.92l2.01,1.54l5.02-6.57
				c0.33-0.43,0.73-0.74,1.21-0.94c0.48-0.19,0.98-0.26,1.5-0.21c0.52,0.06,0.99,0.25,1.42,0.58l2.45,1.87
				c0.42,0.32,0.72,0.72,0.91,1.21c0.19,0.49,0.26,0.99,0.2,1.5c-0.06,0.52-0.25,0.99-0.58,1.42l-5.1,6.68
				C121.88,217,121.48,217.31,120.99,217.5z" />
				<path class="st18" d="M333.15,57.27c-0.51-0.1-0.97-0.32-1.38-0.64c-0.41-0.33-0.7-0.74-0.88-1.23l-0.39-1.07l2.91-1.06
				l0.33,0.91l7.64-2.78l-0.92-2.53l-8.3,3.02l-1.06-2.91l7.79-2.83l-0.89-2.44l-7.12,2.59l0.39,1.07l-2.91,1.06l-0.44-1.22
				c-0.18-0.51-0.23-1.02-0.12-1.53c0.1-0.51,0.32-0.97,0.65-1.37c0.33-0.4,0.75-0.69,1.25-0.88l7.41-2.69
				c0.51-0.18,1.02-0.23,1.53-0.13s0.96,0.31,1.36,0.64c0.4,0.33,0.69,0.75,0.88,1.26l1,2.74c0.05,0.14,0.1,0.29,0.13,0.46
				c0.04,0.17,0.06,0.32,0.07,0.46c0.27,0.16,0.52,0.37,0.74,0.62s0.39,0.55,0.51,0.88l1.03,2.84c0.18,0.5,0.22,1,0.13,1.51
				c-0.1,0.51-0.31,0.97-0.63,1.37c-0.33,0.41-0.74,0.7-1.25,0.89l-7.92,2.88C334.17,57.33,333.66,57.37,333.15,57.27z" />
				<path class="st18" d="M348.88,51.59c-0.52-0.15-0.98-0.41-1.38-0.79c-0.4-0.37-0.69-0.81-0.85-1.31l-2.6-8.02
				c-0.17-0.51-0.19-1.03-0.08-1.55c0.12-0.52,0.34-0.98,0.68-1.38s0.77-0.68,1.28-0.85l8-2.59c0.51-0.17,1.03-0.19,1.54-0.06
				c0.51,0.13,0.96,0.37,1.36,0.72c0.4,0.35,0.68,0.79,0.85,1.3l2.6,8.02c0.16,0.5,0.19,1.02,0.08,1.56
				c-0.11,0.54-0.33,1.02-0.66,1.45c-0.33,0.43-0.75,0.72-1.27,0.89l-8,2.59C349.92,51.73,349.4,51.74,348.88,51.59z M348.73,45.83
				l4.48-7.16l-6.15,1.99L348.73,45.83z M351.13,47.87l6.15-1.99l-1.67-5.17L351.13,47.87z" />
				<path class="st18" d="M633.42,46.05c-0.35-0.39-0.58-0.84-0.71-1.34s-0.11-1.01,0.04-1.51l0.33-1.08l2.96,0.91l-0.29,0.93
				l7.77,2.39l0.79-2.58l-8.44-2.6l0.91-2.96l7.92,2.44l0.76-2.48l-7.24-2.23l-0.33,1.08l-2.96-0.91l0.38-1.24
				c0.16-0.52,0.43-0.95,0.82-1.29c0.39-0.35,0.83-0.58,1.34-0.7s1.01-0.1,1.53,0.06l7.53,2.32c0.52,0.16,0.95,0.43,1.3,0.81
				s0.58,0.83,0.7,1.33c0.12,0.5,0.1,1.01-0.06,1.53l-0.86,2.79c-0.04,0.14-0.1,0.29-0.17,0.45c-0.07,0.16-0.14,0.29-0.22,0.41
				c0.12,0.29,0.19,0.61,0.22,0.95c0.02,0.34-0.02,0.68-0.12,1.01l-0.89,2.89c-0.16,0.5-0.42,0.93-0.81,1.28s-0.83,0.59-1.33,0.71
				c-0.51,0.13-1.02,0.11-1.53-0.05l-8.06-2.48C634.2,46.72,633.76,46.44,633.42,46.05z" />
				<path class="st18" d="M649.38,51.06c-0.33-0.4-0.55-0.86-0.66-1.37c-0.11-0.51-0.08-1.01,0.1-1.51l0.37-1.07l2.93,1.02
				l-0.32,0.92l7.68,2.66l0.9-2.58l-10.61-3.68l2.87-8.27l13.53,4.7l-1.02,2.93l-10.6-3.68l-0.83,2.39l7.81,2.71
				c0.51,0.18,0.93,0.46,1.27,0.86c0.33,0.4,0.56,0.85,0.67,1.36s0.08,1.02-0.1,1.53l-1.01,2.91c-0.17,0.5-0.46,0.91-0.86,1.25
				s-0.86,0.55-1.37,0.66c-0.51,0.11-1.02,0.08-1.53-0.1l-7.94-2.76C650.13,51.75,649.71,51.46,649.38,51.06z" />
				<path class="st18" d="M879.1,218.35l2.91-2.17l-5.22-7l2.22-1.66l11.98,2.36l1.66,2.22l-6.28,4.69l1.16,1.56l-2.5,1.87
				l-1.16-1.56l-2.91,2.17L879.1,218.35z M882.3,211.36l2.21,2.96l2.4-1.79L882.3,211.36z" />
				<path class="st18" d="M884.48,224.91c0-0.54,0.11-1.06,0.35-1.55c0.24-0.5,0.58-0.89,1.01-1.2l6.92-4.81
				c0.44-0.31,0.93-0.48,1.46-0.52c0.53-0.04,1.04,0.04,1.52,0.25c0.48,0.21,0.88,0.53,1.19,0.98l4.8,6.9
				c0.31,0.44,0.48,0.93,0.5,1.45c0.03,0.52-0.07,1.03-0.29,1.51c-0.22,0.48-0.56,0.88-1,1.19l-6.92,4.81
				c-0.43,0.3-0.92,0.48-1.47,0.53c-0.55,0.05-1.07-0.02-1.58-0.21c-0.5-0.19-0.91-0.51-1.22-0.95l-4.8-6.9
				C884.64,225.94,884.48,225.45,884.48,224.91z M888.69,225.98l3.69,5.31l4.46-3.1L888.69,225.98z M889.94,223.09l8.15,2.2
				l-3.69-5.31L889.94,223.09z" />
			</g>
		</g>
	</g>
	<g>
		<g>
			<path class="st11" d="M460.33,32.96v-14.4h13.3v3.12h-10.16v2.52h8.18v3.12h-8.18v5.64H460.33z" />
			<path class="st11" d="M474.79,32.96v-14.4h13.3v3.12h-10.16v2.52h8.18v3.12h-8.18v2.52h10.16v3.12H474.79z" />
			<path class="st11"
				d="M489.69,32.96v-14.4h3.2l4.88,5.82l4.86-5.82h3.22v14.4h-3.12V23.3l-4.96,5.92l-4.98-5.9v9.64H489.69z" />
			<path class="st11" d="M508.29,21.52c0-0.55,0.13-1.04,0.4-1.49c0.27-0.45,0.63-0.8,1.08-1.07c0.45-0.27,0.95-0.4,1.48-0.4h8.46
			c0.55,0,1.04,0.13,1.49,0.4c0.45,0.27,0.81,0.62,1.08,1.07c0.27,0.45,0.41,0.94,0.41,1.49v11.44h-3.14v-4.64h-8.16v4.64h-3.1
			V21.52z M519.55,25.2v-3.52h-8.16v3.52H519.55z" />
			<path class="st11" d="M524.47,32.96v-14.4h3.06v14.4H524.47z" />
			<path class="st11" d="M529.27,32.96V18.54h3.1v11.3h11.3v3.12H529.27z" />
		</g>
		<g>
			<g>
				<path class="st18" d="M458.33,30.96v-14.4h13.3v3.12h-10.16v2.52h8.18v3.12h-8.18v5.64H458.33z" />
				<path class="st18" d="M472.79,30.96v-14.4h13.3v3.12h-10.16v2.52h8.18v3.12h-8.18v2.52h10.16v3.12H472.79z" />
				<path class="st18"
					d="M487.69,30.96v-14.4h3.2l4.88,5.82l4.86-5.82h3.22v14.4h-3.12V21.3l-4.96,5.92l-4.98-5.9v9.64H487.69z" />
				<path class="st18" d="M506.29,19.52c0-0.55,0.13-1.04,0.4-1.49c0.27-0.45,0.63-0.8,1.08-1.07c0.45-0.27,0.95-0.4,1.48-0.4h8.46
				c0.55,0,1.04,0.13,1.49,0.4c0.45,0.27,0.81,0.62,1.08,1.07c0.27,0.45,0.41,0.94,0.41,1.49v11.44h-3.14v-4.64h-8.16v4.64h-3.1
				V19.52z M517.55,23.2v-3.52h-8.16v3.52H517.55z" />
				<path class="st18" d="M522.47,30.96v-14.4h3.06v14.4H522.47z" />
				<path class="st18" d="M527.27,30.96V16.54h3.1v11.3h11.3v3.12H527.27z" />
			</g>
		</g>
	</g>
</svg>